<?xml version="1.0" encoding="UTF-8" standalone="no"?><svg width="479" height="400" viewBox="0 0 479 400" fill="none" xmlns="http://www.w3.org/2000/svg">
<path fill-rule="evenodd" clip-rule="evenodd" d="M174.021 102.62C173.69 108.626 173.36 114.632 173.031 120.638C175.153 119.957 188.655 115.533 187.821 120.019C187.223 123.236 183.427 126.717 181.493 128.957C179.713 131.02 177.88 133.029 176 134.979C179.455 133.506 182.938 132.111 186.446 130.806C189.101 129.819 191.776 128.855 194.496 128.115C195.506 127.84 198.232 126.719 199.186 127.483C201.693 129.493 188.092 144.291 186.229 146.377C188.863 145.012 191.561 143.773 194.304 142.709C196.285 141.942 202.405 139.007 204.158 141.513C206.034 144.194 201.386 150.351 200.097 152.303C198.25 155.1 196.248 157.784 194.148 160.35C202.877 169.081 213.134 176.853 224.051 181.683C232.054 185.225 239.917 186.127 248.363 184.183C257.04 182.186 265.361 178.357 273.271 173.978C277.917 171.406 282.501 168.623 286.869 165.497C285.068 163.058 283.32 160.568 281.622 158.04C279.198 154.431 276.218 150.487 274.836 146.19C273.484 141.985 278.558 142.806 280.993 143.034C284.518 143.365 288.034 144.067 291.488 144.906C289.046 143.014 286.647 141.046 284.297 139.014C281.234 136.367 277.148 133.373 275.143 129.563C273.38 126.214 277.25 127.06 279.039 127.498C283.305 128.545 287.455 130.329 291.524 132.068C294.503 133.342 297.465 134.676 300.397 136.082C298.577 134.319 296.818 132.472 295.127 130.558C292.854 127.984 289.79 124.841 288.771 121.297C286.696 114.08 300.654 119.524 303.037 120.638C302.597 113.161 302.157 105.685 301.717 98.2083C283.235 103.685 264.752 109.163 246.269 114.641C244.272 115.233 241.772 116.522 239.689 116.591C237.802 116.654 235.523 115.708 233.684 115.317L200.237 108.199C191.498 106.34 182.76 104.48 174.021 102.62Z" fill="#006A6A" fill-opacity="0.8"/>
<path fill-rule="evenodd" clip-rule="evenodd" d="M372.668 359.779C370.673 361.05 368.336 362.032 366.119 362.691C364.817 363.078 362.666 364.273 361.522 363.178C360.973 362.651 360.847 361.457 360.523 360.765C360.01 359.669 359.281 358.722 358.599 357.754C356.944 355.406 355.222 353.141 353.42 350.932C352.566 349.886 351.006 347.442 349.502 347.603C347.627 347.804 347.671 350.694 348.141 352.171C349.638 356.873 354.167 360.972 357.126 364.514C356.373 365.804 352.242 365.65 351.095 365.349C349.343 364.888 349.166 363.499 348.367 361.91C346.497 358.197 342.704 356.12 339.586 353.937C338.449 353.14 336.034 350.934 334.552 351.489C333.148 352.016 333.209 354.013 333.656 355.317C334.331 357.288 336.253 358.656 337.674 359.901C339.569 361.562 341.302 363.369 342.88 365.403C340.604 365.609 338.337 365.967 336.067 366.175C333.321 366.427 331.033 364.749 328.505 363.798C326.157 362.914 323.817 362.167 321.507 361.149C318.915 360.005 316.199 359.607 313.583 358.604C303.319 354.667 293.261 349.714 283.37 344.723C278.657 342.344 274.041 339.964 269.13 338.103C265.551 336.746 259.927 334.042 259.071 329.294C258.619 326.785 260.265 324.087 260.508 321.581C260.792 318.632 260.568 315.388 259.762 312.559C259.05 310.067 257.872 307.758 256.944 305.366C255.862 302.576 256.831 302.622 258.932 302.305C261.447 301.925 264.382 300.348 266.746 299.321C269.469 298.137 272.169 296.484 274.663 294.784C276.919 293.246 278.882 291.264 280.677 289.111C282.504 286.922 283.687 284.327 285.453 282.083C291.972 291.012 298.168 300.076 305.095 308.619C308.364 312.651 311.919 315.985 315.948 319.051C317.63 320.332 319.299 321.794 321.131 322.807C323.423 324.073 325.986 324.859 328.341 326.016C337.373 330.448 345.994 335.293 354.42 341.012C358.496 343.779 361.917 346.95 365.507 350.421C366.624 351.501 375.776 357.798 372.668 359.779ZM266.714 286.633C265.255 287.369 263.864 288.325 262.306 288.798C262.748 285.807 265.254 281.294 268.468 281.791C269.696 281.98 270.622 283.042 270.083 284.506C269.592 285.836 267.754 286.109 266.714 286.633ZM165.116 205.491C163.461 206.508 161.92 207.1 160.949 204.917C161.668 204.756 164.933 204.271 165.116 205.491ZM162.361 199.316C161.082 198.884 162.105 198.43 162.545 197.909C162.888 197.504 164.023 196.081 164.42 195.846C166.174 194.811 167.53 198.661 168.369 199.911C166.383 199.714 164.294 199.969 162.361 199.316ZM176.034 212.648C173.61 213.106 173.879 209.729 173.951 208.018C174.462 208.712 177.924 212.292 176.034 212.648ZM184.066 206.815C181.111 207.37 179.159 201.684 179.688 199.197C180.154 197.006 182.444 195.783 184.268 195.46C186.034 195.146 188.495 195.574 189.019 197.844C189.483 199.849 186.035 206.445 184.066 206.815ZM254.014 292.65C251.89 293.376 249.81 293.468 247.675 294.182C245.254 294.991 243.012 294.919 240.586 295.47C239.599 295.694 236.936 297.296 235.973 296.938C235.019 296.584 233.638 293.287 233.09 292.43C237.383 290.442 241.046 287.876 243.876 283.688C246.126 280.358 248.539 275.369 247.123 271.07C245.526 266.224 240.023 265.172 236.354 267.196C234.618 268.154 232.898 269.344 231.466 270.803C229.83 272.47 229.186 274.291 228.126 276.347C227.054 278.428 226.302 277.271 225.231 275.504C224.315 273.994 224.435 272.469 223.291 270.98C222.707 270.219 221.803 269.486 221.499 268.504C221.306 267.882 221.712 266.778 221.346 266.288C220.831 265.599 220.205 266.408 219.773 265.794C219.46 265.347 219.562 264.329 219.238 263.77C218.957 263.453 218.646 263.182 218.3 262.956C217.881 262.726 217.805 262.437 218.07 262.091C217.737 261.404 218.058 261.172 217.345 260.336C216.233 259.034 215.219 257.786 214.427 256.249C214.066 255.545 214.101 254.502 213.652 253.893C213.035 253.057 212.008 253.182 211.477 252.147C211.005 251.225 211.321 249.612 210.542 248.775C210.131 248.644 209.72 248.516 209.309 248.389C209 248.055 208.82 247.649 208.768 247.171C208.336 246.429 208.25 245.558 207.703 244.774C206.658 243.275 205.252 241.89 204.328 240.309C203.357 238.648 203.872 238.369 205.558 237.774C207.079 237.237 208.468 236.739 209.878 235.826C216.396 231.601 222.575 220.396 212.229 216.972C208.39 215.701 205.237 212.285 200.98 213.628C199.134 214.21 197.384 215.45 196.007 216.921C195.056 217.937 194.175 220.657 193.007 221.178C190.907 222.114 191.795 219.775 191.199 218.7C190.914 218.187 189.769 217.596 189.344 217.129C188.846 216.581 188.365 215.89 188.019 215.213C187.377 213.956 186.984 213.256 186.058 212.232C185.709 211.846 183.966 209.85 185.538 210.11C184.901 207.95 185.83 207.625 187.114 206.046C188.622 204.193 190.179 201.617 190.188 199.019C190.205 194.032 184.899 191.798 181.567 194.758C180.888 195.36 176.878 201.175 177.699 197.467C178.141 195.467 182.238 190.246 184.137 191.597C182.008 188.142 177.119 196.53 175.978 198.247C175.006 196.254 174.938 194.696 173.33 193.153C172.021 195.491 172.712 192.936 172.423 192.416C171.8 191.295 172.142 192.578 171.804 192.179C171.383 191.683 170.721 191.292 170.273 190.634C169.505 191.794 169.812 190.546 169.577 190.113C169.027 189.1 169.24 188.514 168.298 187.633C167.612 186.993 166.262 185.998 165.339 185.908C164.275 185.803 163.981 186.257 162.897 185.921C161.517 185.494 159.782 184.837 160.449 187.406C160.934 189.273 162.905 190.334 163.337 192.242C163.771 194.161 162.066 196.096 161.24 197.67C160.178 199.689 159.309 199.524 157.385 199.98C156.156 200.271 154.515 200.894 155.569 202.555C156.322 203.742 158.087 203.492 159.081 204.195C160.475 205.18 160.455 207.61 162.235 208.033C164.194 208.499 165.317 206.069 166.969 205.482C168.144 205.065 171.783 205.111 172.707 206.094C173.967 207.432 172.879 209.99 173.196 211.653C173.667 214.119 175.165 214.269 177.06 214.348C179.392 214.445 180.212 216.939 181.466 218.917C184.404 223.551 186.957 228.491 189.966 233.062C191.299 235.087 193.247 236.887 194.338 239.085C195.685 241.798 193.815 243.363 192.201 245.31C190.093 247.855 188.519 250.751 186.69 253.532C185.065 256.005 183.045 255.389 180.448 255.389C181.026 254.06 181.723 253.232 183.147 253.393C181.658 251.368 180.467 253.684 179.501 254.967C178.104 256.822 176.283 257.27 174.488 258.49C173.853 258.921 170.394 261.719 171.445 262.674C171.564 262.783 177.289 258.588 177.941 258.204C177.941 259.752 177.637 261.361 177.832 262.9C177.975 264.03 178.688 265.207 178.536 266.381C178.248 268.597 175.676 270.343 174.573 272.069C173.742 273.369 173.942 274.394 173.52 275.789C173.134 277.061 173.336 276.676 172.375 277.07C170.419 277.87 167.125 277.438 165.353 276.3C164.253 275.594 163.41 274.477 162.516 273.493C161.843 272.751 160.151 271.484 159.963 270.446C159.643 268.658 162.829 265.337 163.459 263.494C165.24 258.291 162.186 254.246 157.434 253.951C158.899 252.693 160.714 253.641 162.258 254.121C159.619 250.048 155.111 253.399 152.872 256.167C151.343 251.861 150.605 247.318 149.671 242.827C149.034 239.769 146.612 234.311 147.692 231.163C148.215 229.641 149.69 228.792 150.71 227.736C151.869 226.537 152.862 225.104 153.709 223.619C155.705 220.122 156.859 215.707 154.109 212.261C154.945 212.108 155.78 211.955 156.616 211.802C155.257 210.38 153.113 211.073 151.35 210.651C150.232 210.384 147.012 210.557 146.266 209.852C145.367 209.004 145.943 205.103 145.975 203.948C146.049 201.25 146.251 198.656 146.519 195.974C146.772 193.441 146.721 190.703 147.191 188.214C147.573 186.194 148.793 185.579 150.2 184.388C153.563 181.542 156.304 178.08 155.156 173.175C155.562 173.103 155.969 173.031 156.376 172.959C155.06 171.899 153.357 172.285 151.894 171.724C153.238 167.511 156.211 160.104 161.038 159.705C161.204 161.588 161.09 163.829 162.231 165.388C163.53 167.163 165.81 167.342 167.57 166.403C169.167 165.55 170.666 163.743 171.402 161.957C171.9 160.748 171.81 158.705 172.684 157.746C173.856 156.461 181.938 157.237 181.69 159.406C181.545 160.681 179.384 162.824 178.78 163.954C177.674 166.022 176.789 168.259 176.384 170.635C175.768 174.242 176.124 179.004 179.413 180.9C183.154 183.058 187.713 180.315 190.781 177.945C192.465 176.644 194.097 175.208 195.635 173.7C196.455 172.898 197.279 172.071 198.001 171.158C198.535 170.484 198.961 169.398 199.617 168.894C201.169 167.702 202.689 169.724 204.002 170.745C206.14 172.409 208.267 173.989 210.562 175.374C215.219 178.183 219.477 181.905 223.595 185.6C227.736 189.318 232.007 193.142 235.362 197.772C233.33 199.164 233.692 199.526 232.788 202.009C232.147 203.772 231.263 205.272 231.161 207.23C230.984 210.609 232.932 213.489 235.889 214.237C237.542 214.656 239.117 214.32 240.649 213.568C241.84 212.982 243.026 211.542 244.27 211.184C246.582 210.52 248.432 215.385 249.728 217.098C255.484 224.708 261.568 232.018 266.988 239.938C267.588 240.816 269.371 242.529 269.516 243.691C269.724 245.359 267.368 246.948 266.391 247.905C265.878 248.406 260.436 254.107 262.263 255.013C262.784 255.271 264.309 251.774 264.69 251.474C266.117 250.355 265.038 252.55 264.953 253.66C264.74 256.418 266.441 257.921 268.832 257.571C271.384 257.198 273.656 254.955 275.235 252.836C277.214 255.388 280.307 259.247 280.879 262.657C281.245 264.835 279.552 270.167 282.712 270.611C283.194 270.679 284.939 269.237 285.265 270.056C285.536 270.739 283.649 271.907 283.377 272.133C282.215 273.1 281.512 274.135 280.574 275.306C279.472 276.681 277.966 277.838 276.726 279.155C275.42 280.542 272.836 284.31 271.113 282.489C270.247 281.575 270.475 280.379 269.087 279.842C267.824 279.353 266.223 279.973 265.049 280.515C263.727 281.125 259.374 283.353 258.891 285.186C258.224 287.715 261.823 284.675 262.462 284.231C261.732 286.293 261.329 289.279 259.471 290.483C257.928 291.482 255.707 292.07 254.014 292.65ZM229.336 277.049C230.572 272.626 237.858 264.741 242.463 267.207C237.096 268.46 232.837 272.55 229.336 277.049ZM232.061 289.714C230.265 288.599 230.362 285.362 229.735 283.468C229.375 282.381 228.656 281.587 228.867 280.381C229.115 278.967 230.734 277.395 231.596 276.375C234.309 273.166 239.082 268.78 243.448 269.516C249.005 270.452 245.238 278.762 243.346 281.623C241.733 284.062 235.518 291.86 232.061 289.714ZM219.097 284.305C213.087 283.858 207.098 283.26 201.17 282.031C199.068 281.596 197.308 281.66 198.51 278.969C198.907 278.081 201.301 272.514 201.841 272.673C202.162 272.768 202.089 276.594 202.183 277.033C202.607 279.003 203.799 280.838 205.808 280.713C209.095 280.509 211.214 275.775 212.944 273.235C214.331 275.311 215.335 277.617 216.728 279.659C217.395 280.635 219.714 282.905 219.097 284.305ZM183.863 258.031C182.855 260.608 180.827 263.059 179.417 265.394C178.619 263.514 178.059 259.198 179.95 257.808C180.666 257.283 184.501 256.402 183.863 258.031ZM204.707 265.705C204.984 264.712 205.291 263.729 205.634 262.762C206.222 264.824 206.523 264.885 204.707 265.705ZM209.851 267.816C210.58 269.193 211.796 270.547 211.606 272.276C211.461 273.586 210.398 274.93 209.638 275.843C208.381 277.353 205.597 280.253 203.776 278.247C202.254 276.571 202.784 271.964 203.492 270.079C204.502 267.385 208.112 264.535 209.851 267.816ZM206.282 264.994C206.7 264.808 205.822 261.803 206.637 261.504C207.348 263.309 208.018 263.798 206.282 264.994ZM194.798 224.544C194.527 223.435 193.906 223.482 194.13 222.111C194.277 221.212 194.917 220.252 195.403 219.54C196.372 218.12 197.649 216.95 199.031 216.064C201.948 214.194 205.953 213.418 208.564 216.345C206.123 216.774 198.639 219.458 198.591 223.176C201.306 222.594 203.441 219.557 206.163 218.6C208.398 217.814 210.822 217.87 213.045 218.699C219.13 220.969 216.6 226.828 213.165 230.632C211.126 232.892 208.681 234.578 206.009 235.742C204.772 236.28 204.013 236.34 202.797 236.069C202.569 236.018 202.303 235.548 202.03 235.447C201.351 235.197 201.548 236.045 200.989 235.664C200.502 235.332 199.462 233.188 199.13 232.575C198.602 231.598 198.356 230.648 197.708 229.757C197.059 228.865 196.744 227.67 196.144 226.862C195.856 226.474 195.066 226.489 194.854 226.111C194.535 225.541 194.941 225.126 194.798 224.544ZM185.452 268.233C186.836 265.556 189.202 263.284 191.033 260.944C191.145 264.789 188.67 267.422 185.452 268.233ZM187.321 269.469C190.178 268.349 191.751 265.671 192.043 262.424C192.413 258.311 194.731 256.153 196.127 252.458C196.663 251.042 197.287 246.382 199.362 247.716C200.073 248.173 200.496 249.894 200.866 250.671C201.764 252.551 202.784 254.374 203.736 256.22C204.511 257.724 205.672 259.235 205.331 261.045C205.032 262.623 204.073 264.304 203.511 265.792C202.184 269.306 200.441 272.543 198.985 275.98C198.398 277.367 197.702 280.649 195.908 280.633C194.489 280.619 194.647 278.891 193.712 278.298C192.532 277.55 191.191 278.973 190.221 279.563C191.338 277.464 193.289 276.275 195.482 276.671C192.856 273.758 191.081 277.688 188.827 278.563C186.691 279.393 182.903 275.481 181.104 274.372C181.792 273.075 182.414 271.488 183.597 270.635C184.719 269.824 186.096 269.949 187.321 269.469ZM164.099 296.09C164.412 294.412 165.296 293.421 165.856 291.898C166.505 293.745 164.984 294.834 164.099 296.09ZM209.481 306.383C209.327 312.031 208.913 317.664 208.763 323.314C208.694 325.92 208.28 328.406 208.005 330.981C207.773 333.159 207.891 335.298 206.66 337.159C204.719 340.093 200.946 340.936 198.017 342.023C195.865 342.821 193.689 343.545 191.565 344.431C189.653 345.229 188.113 346.438 186.295 347.386C184.669 348.235 182.914 348.737 181.295 349.642C179.621 350.577 178.298 351.716 176.579 352.548C174.52 353.545 172.824 355.318 170.993 356.725C169.381 357.964 167.676 358.921 166.29 360.479C164.99 361.941 163.344 362.582 161.871 363.88C160.313 365.254 158.683 366.146 156.962 367.223C153.436 369.43 148.68 373.198 144.437 371.054C145.65 369.328 148.134 367.669 148.323 365.291C148.568 362.193 146.147 363.333 144.745 364.323C142.622 365.821 141.447 367.63 139.83 369.627C137.94 371.961 135.553 370.391 133.241 369.734C134.822 368.149 136.39 366.549 137.968 364.961C139.301 363.621 141.34 362.171 142.151 360.318C142.731 358.992 142.702 357.176 141.303 356.488C139.738 355.719 137.967 357.341 136.807 358.307C133.729 360.872 131.702 364.125 129.681 367.695C128.606 369.593 128.11 369.447 126.132 369.068C124.036 368.666 121.94 368.237 119.827 367.955C122.626 364.753 125.755 361.284 127.966 357.537C128.682 356.323 129.617 353.124 127.434 352.83C126.535 352.708 124.744 354.756 124.051 355.308C121.019 357.722 118.104 360.766 116.095 364.289C115.431 365.452 115.223 366.746 113.939 366.843C112.259 366.969 109.139 365.184 107.519 364.633C110.615 360.286 113.69 355.908 117.307 352.074C120.63 348.552 123.946 345.993 127.833 343.292C131.998 340.395 135.879 337.061 139.703 333.64C143.365 330.365 147.189 327.276 150.559 323.619C157.291 316.315 163.287 307.915 168.252 299.032C169.413 296.954 170.507 294.821 171.452 292.61C172.34 290.533 172.749 288.049 173.948 286.16C174.362 285.507 174.946 285.022 175.315 284.342C175.662 283.7 175.545 282.925 176.075 282.357C177.303 281.045 179.538 281.836 180.685 282.756C182.531 284.235 184.024 286.031 186.052 287.27C188.092 288.515 190.298 289.421 192.557 290.033C197.836 291.462 203.069 292.635 208.447 293.504C207.894 295.789 209.253 296.149 209.703 298.206C210.25 300.702 209.549 303.841 209.481 306.383ZM158.65 268.267C157.453 266.286 156.385 264.215 155.208 262.222C154.492 261.008 153.604 259.704 154.216 258.219C155.248 255.716 158.886 255.27 160.861 256.361C165.35 258.843 161.18 265.936 158.65 268.267ZM146.768 222.971C146.355 219.1 147.684 216.354 150.828 214.324C153.069 212.877 154.874 214.854 154.568 217.491C154.102 221.509 150.248 225.978 147.306 228.074C147.113 226.375 146.95 224.671 146.768 222.971ZM146.289 211.895C147.216 211.075 149.7 212.121 150.775 212.193C149.297 213.631 147.819 215.069 146.341 216.507C146.244 215.52 145.433 212.652 146.289 211.895ZM151.276 174.511C158.755 173.428 150.146 182.367 147.978 183.768C148.331 181.866 149.197 174.812 151.276 174.511ZM171.186 158.861C170.182 163.443 162.375 168.441 162.293 160.936C162.263 158.14 163.673 158.366 165.731 158.098C166.906 157.945 171.76 156.243 171.186 158.861ZM144.22 165.956C143.343 168.518 142.64 171.146 141.781 173.711C141.401 174.847 140.953 175.627 140.244 176.527C139.651 177.28 138.944 177.47 138.968 178.659C139.711 178.499 140.293 178.006 140.894 177.53C140.748 179.888 140 182.425 139.638 184.775C139.204 187.594 138.842 190.413 138.708 193.271C138.417 199.485 138.415 205.677 138.537 211.895C138.6 215.063 138.628 218.234 138.781 221.398C138.858 222.973 138.944 224.554 139.119 226.119C139.19 226.75 139.602 228.095 139.348 228.687C138.349 231.012 133.924 224.628 132.002 225.564C132.279 223.796 131.641 224.183 130.576 223.313C130.061 222.891 129.725 222.174 129.187 221.798C129.024 221.603 128.845 221.429 128.65 221.276C128.427 220.939 128.193 220.975 127.946 221.384C125.781 219.943 125.222 216.871 124.06 214.805C123.462 213.743 122.884 213.577 122.782 212.108C122.694 210.828 122.867 209.523 122.82 208.238C122.768 206.788 122.691 205.189 122.326 203.785C121.902 202.155 121.319 202.288 120.183 201.419C120.533 201.248 120.764 200.962 120.876 200.56C120.513 200.632 119.411 201.133 119.137 200.773C118.598 200.066 119.869 199.972 120.203 199.689C118.778 198.985 119.085 198.406 119.599 197.114C119.745 196.749 119.884 196.203 120.007 195.895C120.278 195.222 120.433 195.648 120.523 194.812C120.607 194.014 119.973 192.447 119.786 191.597C119.472 190.172 119.299 188.941 119.58 187.456C119.809 186.254 120.423 185.166 120.465 183.93C120.477 183.582 120.003 183.467 119.996 183.132C119.987 182.642 120.397 182.427 120.504 181.974C120.777 180.816 120.654 179.591 121.12 178.492C121.539 177.505 122.387 176.227 122.986 175.366C123.402 174.769 124.422 174.096 124.534 173.308C124.608 172.785 123.878 172.845 123.91 172.452C123.954 171.919 124.356 171.747 124.466 171.351C124.769 170.264 124.845 169.221 125.63 168.388C126.618 167.341 127.047 167.779 127.088 166.051C127.107 165.208 126.502 165.078 126.826 164.106C127.003 163.578 127.523 163.266 127.855 162.892C128.843 161.783 129.509 160.797 130.212 159.426C130.834 158.214 131.826 157.51 132.463 156.464C133.293 155.1 132.052 154.424 133.736 154.039C133.497 153.193 133.242 152.509 133.872 151.792C134.27 151.34 135.278 151.617 135.629 151.094C136.032 150.494 135.437 149.071 136.044 148.682C136.538 148.366 137.277 149.341 138.054 148.858C138.645 148.49 139.538 146.458 139.348 145.71C140.877 146.669 140.496 146.009 141.228 144.78C141.392 144.504 141.889 144.443 142.03 144.164C142.312 143.609 142.248 143.042 142.655 142.59C143.333 141.838 144.443 142.031 145.189 141.494C145.806 141.05 145.774 140.571 146.266 140.152C146.686 139.795 147.377 139.726 147.785 139.355C148.586 138.629 148.594 137.862 149.596 137.236C150.782 136.496 151.833 135.866 152.912 134.884C153.616 134.244 154.283 133.109 155.106 132.687C156.245 132.104 157.131 132.062 158.245 131.229C159.05 130.627 159.811 129.633 160.6 129.125C161.197 128.743 161.615 128.825 162.366 128.588C163.718 128.161 164.047 126.743 165.15 126.165C165.907 125.769 167.009 126.132 167.841 125.923C170.428 125.276 172.983 123.881 175.58 123.108C178.748 122.166 181.94 121.339 185.133 120.506C182.199 124.935 178.461 128.932 174.671 132.45C173.426 133.605 166.608 138.87 170.283 141.119C171.758 142.021 174.963 139.106 176.154 138.394C178.553 136.959 181.037 135.81 183.549 134.65C187.611 132.773 192.901 129.436 197.416 129.705C194.668 133.459 191.238 136.473 188.094 139.79C185.206 142.838 180.854 145.697 182.216 150.687C178.159 149.537 174.515 148.179 170.297 148.48C168.408 148.614 166.517 148.361 164.636 148.656C162.591 148.978 160.665 149.74 158.7 150.409C157.145 150.938 155.427 150.98 153.996 151.859C153.305 152.285 152.45 152.892 151.829 153.42C151.001 154.123 150.813 154.589 150.162 155.517C147.843 158.825 145.598 161.926 144.22 165.956ZM131.531 228.57C131.404 227.997 131.289 227.475 131.144 226.821C132.435 227.707 132.435 227.707 131.531 228.57ZM121.772 210.334C121.613 210.579 120.945 210.658 120.751 210.446C120.509 210.183 121.144 209.159 121.246 208.942C121.498 209.157 122.078 209.862 121.772 210.334ZM119.008 203.697C119.179 202.998 119.35 202.299 119.521 201.6C119.731 202.248 120.678 202.964 120.699 203.582C120.712 203.991 119.195 203.787 119.008 203.697ZM119.557 204.656C121.038 205.743 121.193 207.024 121.237 208.899C119.465 208.245 119.719 206.334 119.557 204.656ZM145.322 130.667C145.173 131.118 144.538 132.522 144.073 131.54C143.924 131.225 145.013 130.796 145.322 130.667ZM144.897 129.136C145.263 128.768 146.001 129.225 146.415 128.929C146.706 128.72 146.609 128.509 146.746 128.385C146.773 128.36 147.168 127.471 147.329 127.269C147.615 126.914 148.238 126.693 148.585 126.372C149.555 125.476 150.103 124.298 150.714 123.1C151.442 121.67 151.674 121.505 152.849 120.849C153.659 120.398 154.287 119.845 154.946 119.078C155.705 118.194 155.649 117.561 156.273 116.595C156.581 116.118 157.024 116.059 157.383 115.675C157.813 115.215 158.032 114.571 158.43 114.107C158.601 113.906 159.153 113.907 159.257 113.735C159.39 113.517 159.493 112.647 159.617 112.486C159.854 112.844 160.093 113.201 160.33 113.558C161.266 111.724 161.949 110.209 163.515 108.989C165.159 107.707 166.578 105.832 168.278 104.685C168.66 104.427 169.438 104.318 169.73 103.938C170.223 103.295 169.796 102.723 170.156 102.177C170.564 101.558 171.355 102.059 171.874 101.792C172.532 101.455 172.72 100.468 173.565 100.576C170.784 104.242 170.819 109.944 170.671 114.521C170.607 116.494 171.722 117.488 170.076 118.935C168.675 120.167 166.7 119.801 165.044 120.611C162.965 121.629 160.741 122.17 158.619 123.057C156.425 123.974 154.66 125.58 152.548 126.643C150.686 127.579 149.414 128.91 147.711 130.067C147.077 130.496 146.097 131.12 145.341 130.607C144.869 130.285 144.279 129.756 144.897 129.136ZM176.311 98.4067C176.432 97.8858 178.806 96.5176 179.39 96.0713C180.266 95.3999 181.564 93.7614 182.542 94.4124C182.882 92.8999 184.205 91.2171 185.373 90.8968C186.67 90.5405 188.894 89.3025 190.17 88.2212C190.543 87.9056 190.665 87.4442 191.104 87.1478C191.867 86.6322 192.625 86.9134 193.36 86.2108C193.472 86.1035 194.49 84.2322 194.53 84.2499C194.582 84.4509 194.63 84.6541 194.671 84.8582C195.443 84.3811 196.131 84.0014 196.612 83.3931C196.721 83.2551 196.014 82.8962 196.237 82.6233C196.511 82.2884 197.121 82.6624 197.397 82.3447C196.538 87.0973 197.178 93.214 201.507 95.6228C196.359 96.2426 191.331 94.5186 186.119 95.5775C183.625 96.0848 181.089 96.9166 178.82 98.1947C177.429 98.978 175.651 101.783 174.267 100.421C174.816 99.6051 175.654 99.0983 176.311 98.4067ZM201.289 84.7353C203.214 82.1129 206.134 81.0749 209.075 82.014C212.518 83.114 211.066 85.7931 210.546 88.7681C209.553 87.1457 207.4 85.5369 205.568 85.4879C202.969 85.4192 203.951 87.8301 205.512 88.6936C206.93 89.4785 209.363 89.6973 210.378 91.1249C211.366 92.5134 210.987 94.7848 211.147 96.4223C210.378 96.2952 209.61 96.1681 208.842 96.041C209.487 92.2186 206.648 92.0332 204.002 90.9556C201.328 89.8671 199.099 87.7197 201.289 84.7353ZM209.912 75.3228V78.8702C208.842 78.19 207.771 77.5108 206.7 76.8311C207.771 76.3285 208.842 75.8254 209.912 75.3228ZM218.517 103.668C222.092 104.746 225.642 105.888 229.078 107.376C230.326 107.917 231.692 108.108 232.915 108.719C234.08 109.299 234.255 109.239 233.84 110.375C232.68 113.56 229.932 113.01 227.524 112.523C223.755 111.76 220.063 110.703 216.341 109.708C212.703 108.737 208.988 108.099 205.405 106.882C201.728 105.633 198.145 104.449 194.362 103.624C193.259 103.384 184.527 102.492 184.593 101.475C190.092 100.68 195.754 101.463 201.278 101.546C207.018 101.632 212.949 101.987 218.517 103.668ZM213.665 91.3504C213.733 89.1608 213.761 86.9645 214.005 84.7879C215.641 87.0369 217.118 87.7103 219.18 85.602C221.154 83.5843 221.595 82.5322 224.098 84.4291C226.268 86.0749 228.322 85.9988 230.626 84.5587C232.032 83.6801 234.291 80.0905 235.769 80.8296C236.473 81.1817 236.989 82.6014 237.7 83.1238C238.592 83.778 239.964 84.2322 241.003 84.4864C243.459 85.0853 244.922 83.3264 246.464 81.4447C248.699 78.7166 248.634 80.3009 250.706 82.1926C253.017 84.303 254.95 83.2723 257.043 81.4712C258.318 85.6322 258.795 90.1759 259.156 94.5379C259.277 96.0108 259.731 98.102 258.543 99.1436C257.706 99.878 255.929 99.9067 254.921 100.312C251.317 101.763 247.855 103.822 244.841 106.457C243.667 107.484 242.643 108.742 241.039 108.508C239.51 108.285 238.024 106.859 236.794 105.918C235.459 104.897 234.109 103.737 232.549 103.169C231.636 102.835 230.173 102.956 229.373 102.345C227.887 101.209 229.636 98.2285 229.266 96.228C228.986 94.7093 228.201 91.5426 226.323 92.4327C223.528 93.7572 225.154 98.928 226.691 100.542C223.547 99.9202 220.066 99.0119 217.033 97.8577C214.691 96.9666 213.581 94.0207 213.665 91.3504ZM266.4 102.014C272.855 99.9957 278.895 98.6348 285.612 98.2671C288.586 98.1041 291.464 98.2072 294.405 98.2369C296.097 98.2541 297.387 96.7338 296.035 94.9848C294.163 92.5634 288.454 93.4853 285.925 93.3765C279.145 93.0848 272.928 93.9431 266.507 96.4322C267.186 95.039 268.817 94.8582 269.935 94.1379C271.307 93.2535 272.239 91.7968 272.825 90.1801C274.35 85.9754 272.815 82.0134 271.221 78.1728C274.353 79.1113 277.593 81.1666 280.742 81.6884C281.403 81.7978 281.826 81.7275 282.41 81.9952C282.769 82.1593 282.882 82.727 283.327 82.8509C283.541 82.9108 284.057 82.3707 284.3 82.4473C285.259 82.7494 284.5 82.8296 285.107 83.2666C285.588 83.6134 285.549 84.0603 286.432 83.8962C286.823 83.8244 287.248 83.1499 287.454 83.1311C287.717 83.1077 287.656 82.7515 288.058 82.8551C288.79 83.0447 288.725 84.0942 288.969 84.6108C289.229 85.1603 288.859 85.8916 289.649 86.1926C290.238 86.4181 290.387 85.7239 290.888 85.7739C291.193 85.8041 291.825 86.2926 292.094 86.5905C292.961 87.5499 294.148 88.6087 295.313 89.2327C295.198 89.1046 295.862 88.7957 295.703 88.7233C295.597 88.6749 296.294 88.8624 296.283 88.8593C296.956 89.0301 297.312 90.1806 297.652 90.6004C298.277 91.3692 299.249 92.1811 300.126 92.5207C301.641 93.1077 301.595 92.4056 302.148 94.4119C303.226 92.5249 303.639 95.6848 304.975 96.0327C305.667 96.2129 305.587 95.8827 306.215 96.2864C306.647 96.5629 306.935 97.4098 307.26 97.8186C307.4 97.2291 307.54 96.639 307.679 96.0499C308.641 98.0811 310.719 101.301 312.998 100.719C312.998 101.273 312.792 101.936 313.178 102.409C313.447 102.739 313.882 102.364 314.093 102.556C314.277 102.724 314.716 103.392 314.857 103.501C315.134 103.718 315.637 103.876 315.878 104.092C316.091 104.282 316.196 105.19 316.431 105.518C316.873 106.134 317.639 106.257 318 106.996C318.083 106.267 318.165 105.537 318.247 104.808C318.965 105.426 319.027 105.905 319.203 106.809C319.454 108.095 319.121 107.794 319.918 108.337C320.701 108.871 321.109 108.811 321.827 109.737C322.53 110.646 322.537 111.205 323.552 110.259C323.741 110.959 323.802 111.864 324.306 112.401C324.686 112.806 326.263 112.824 326.414 113.781C323.451 110.997 325.401 115.225 326.415 113.788C326.63 115.326 327.64 115.823 328.795 116.919C329.871 117.939 330.048 117.866 330.415 119.581C330.407 119.543 330.956 119.922 330.996 119.998C329.947 120.165 331.573 121.47 331.848 121.709C332.049 121.883 332.31 121.467 332.643 121.749C333.024 122.072 333.335 122.805 333.645 123.247C334.486 124.446 335.108 125.476 335.992 126.451C336.947 127.503 337.411 128.833 338.328 130.063C339.345 131.429 339.895 132.998 340.746 134.481C341.554 135.891 342.627 137.023 343.564 138.314C345.056 140.368 345.564 144.893 348.345 145.012C348.183 145.2 348.409 146.603 348.436 146.861C348.567 148.135 348.48 149.36 349.157 150.513C349.312 149.198 349.93 149.705 350.467 150.396C351.36 151.546 350.576 151.257 350.623 152.422C350.68 153.835 350.824 152.742 351.307 153.975C351.686 154.942 351.893 155.569 352.096 156.641C350.525 156.779 349.805 155.349 349.224 153.963C348.981 153.384 348.897 152.431 348.467 151.979C348.01 151.496 347.382 151.458 346.912 150.92C346.009 149.886 345.619 148.274 344.555 147.268C343.354 146.132 343.088 145.595 342.094 144.236C340.996 142.733 339.479 141.677 338.326 140.223C337.172 138.767 337.266 139.562 335.816 139.035C334.274 138.473 331.781 133.074 329.839 135.154C329.915 133.794 328.086 132.514 327.162 132.021C326.762 131.808 326.297 132.001 325.897 131.682C325.463 131.335 325.432 130.668 324.994 130.251C324.995 130.252 324.324 130.433 324.188 130.357C323.911 130.2 323.908 129.647 323.664 129.465C322.987 128.961 322.18 128.433 321.462 128.004C319.715 126.961 318.172 125.676 316.487 124.421C315.044 123.345 313.296 121.401 311.628 120.834C310.171 120.339 309.255 120.591 308.061 119.599C307.411 119.059 307.602 118.877 306.558 118.542C305.563 118.222 305.005 118.386 304.478 117.212C303.556 115.157 304.138 111.145 303.96 108.841C303.77 106.395 303.545 103.888 302.973 101.51C302.296 98.6989 301.401 97.2296 298.694 97.8916C293.33 99.2046 288.031 100.454 282.643 101.607C271.906 103.904 261.353 107.652 250.852 110.981C250.052 111.235 245.59 112.372 246.501 109.803C246.921 108.617 249.746 108.175 250.691 107.803C255.881 105.757 261.095 103.673 266.4 102.014ZM264.596 96.7837C263.812 97.1166 263.028 97.4494 262.244 97.7827V95.3541C263.028 95.8301 263.812 96.3067 264.596 96.7837ZM261.337 83.9421C262.019 84.5624 263.404 83.0697 263.983 82.7671C264.973 82.2509 266.233 81.8072 267.339 81.9134C269.378 82.1098 270.869 84.3457 270.496 86.6129C269.863 90.4483 264.957 92.2619 262.252 93.7614C262.165 92.402 261.77 90.7681 262.626 89.5926C263.369 88.5718 264.81 88.6457 265.495 87.5598C267.22 84.8311 262.545 84.5837 261.5 86.7535C261.087 85.3666 260.675 83.9801 260.263 82.5931C261.258 82.4098 260.821 83.4723 261.337 83.9421ZM266.163 76.4348C265.19 77.1358 264.216 77.8369 263.243 78.5379C262.76 76.1113 264.405 75.7921 266.163 76.4348ZM354.871 160.888C353.596 161.566 353.277 159.948 352.361 159.878C353.444 159.136 353.444 159.136 354.871 160.888ZM360.056 196.224C360.215 198.55 360.09 200.903 360.369 203.219C360.58 204.982 361.222 206.622 361.29 208.404C361.44 212.308 360.256 216.283 357.866 219.144C355.605 221.851 352.37 224.181 349.318 225.319C347.943 225.831 346.507 226.967 345.171 227.387C343.694 227.852 342.29 226.841 341.071 228.655C340.258 220.872 340.852 212.741 340.788 204.909C340.724 197.061 340.799 189.21 339.607 181.446C338.546 174.532 336.453 166.754 332.595 161.097C331.028 158.8 329.099 156.919 327.064 155.158C326.008 154.244 324.952 153.267 323.776 152.546C321.967 151.435 320.425 151.588 318.457 151.272C315.64 150.819 313.022 150.436 310.194 151.32C307.563 152.142 304.664 153.079 302.306 154.508C299.958 155.932 297.231 156.519 294.793 157.794C293.135 158.662 289.69 161.56 287.85 161.038C286.069 160.533 283.432 157.166 282.295 155.658C280.842 153.731 279.639 151.497 278.35 149.423C277.897 148.696 276.974 147.57 276.857 146.635C276.652 145.013 277.236 145.543 278.628 145.724C282.207 146.192 285.572 146.932 289.002 148.186C290.709 148.81 294.047 151.336 295.753 149.822C298.36 147.512 294.4 143.541 292.949 142.207C290.478 139.933 287.605 138.245 284.97 136.225C282.172 134.079 278.471 131.793 276.67 128.488C281.929 130.217 287.184 132.197 292.29 134.427C294.626 135.447 296.935 136.524 299.129 137.881C300.362 138.642 302.852 140.703 304.336 139.716C307.562 137.571 300.152 131.341 299.083 130.068C297.422 128.09 295.794 126.131 293.968 124.336C292.736 123.125 290.801 122.273 290.228 120.487C292.273 121.312 293.926 122.926 295.84 124.023C296.843 124.598 297.757 124.929 298.864 125.105C300.045 125.293 300.185 125.503 301.115 126.025C301.839 126.433 302.583 126.977 303.396 127.254C303.975 127.452 304.987 127.486 305.494 127.852C305.753 128.263 306.02 128.668 306.296 129.064C306.605 129.166 306.909 129.282 307.209 129.415C307.657 129.861 307.924 130.476 308.361 130.936C311.532 134.275 315.773 136.666 319.328 139.463C322.691 142.11 326.261 144.505 329.491 147.393C333.208 150.718 337.067 154.292 340.228 158.279C342.015 160.532 343.484 163.086 344.985 165.578C346.072 167.382 347.653 168.879 348.592 170.739C350.64 174.795 352.34 179.179 354.545 183.169C356.792 187.235 359.719 191.275 360.056 196.224ZM329.839 219.756C330.451 216.941 333.907 213.655 336.116 212.413C335.003 215.48 332.037 217.572 329.839 219.756ZM335.537 229.574C333.654 233.927 325.371 234.425 326.494 227.983C327.045 224.828 329.382 222.891 331.388 220.825C332.316 219.871 334.587 216.457 336.023 217.007C335.955 219.461 335.826 221.927 335.831 224.382C335.833 226.021 336.204 228.034 335.537 229.574ZM333.143 179.405C333.908 181.317 334.669 182.909 333.251 184.619C332.611 185.391 330.527 187.08 329.583 186.705C326.556 185.501 332.328 180.265 333.143 179.405ZM314.831 162.395C315.56 162.351 316.268 162.472 316.989 162.422C317.706 162.373 317.782 162.231 318.448 162.332C318.518 162.446 318.588 162.559 318.658 162.673C318.749 163.436 319.109 163.519 319.737 162.922C320.61 163.138 321.179 163.283 322.014 163.809C319.759 165.619 317.015 167.724 314.251 168.332C309.883 169.292 311.09 162.625 314.831 162.395ZM247.858 203.11C247.406 204.125 246.103 201.589 245.78 201.117C246.381 201.114 248.316 202.086 247.858 203.11ZM282.96 176.394C286.354 174.188 290.385 172.251 294.031 170.609C294.672 174.049 291.546 178.489 289.62 180.843C288.063 182.746 286.186 184.72 284.075 185.816C281.792 187 279.298 186.48 279.409 183.156C279.449 181.942 279.698 179.988 280.141 178.878C280.714 177.447 281.796 177.149 282.96 176.394ZM237.078 113.826C237.583 113.794 243.071 113.004 243.042 113.764C242.956 116.049 237.629 114.255 237.078 113.826ZM198.272 157.961C201.17 153.978 205.85 149.679 205.918 144.112C206.019 135.92 197.857 140.007 193.753 140.348C195.923 137.973 206.827 128.011 200.377 124.473C198.523 123.456 195.888 124.45 194.028 124.983C190.727 125.928 187.659 127.566 184.416 128.705C186.733 125.958 190.736 122.836 190.605 118.676C190.445 113.612 186.713 114.836 183.485 115.579C182.245 115.865 176.705 118.32 175.664 116.653C175.283 116.043 175.9 115.267 176.03 114.723C176.261 113.762 176.189 113.426 176.197 112.444C176.213 110.462 177.396 107.917 176.431 106.073C176.211 106.492 176.022 106.928 175.865 107.381C175.547 106.308 175.761 105.17 175.443 104.097C183.5 106.393 191.696 107.649 199.804 109.608C203.908 110.599 207.771 112.307 211.932 113.075C216.128 113.85 220.251 115.036 224.455 115.775C228.291 116.448 231.966 117.571 235.764 118.431C239.467 119.27 243.264 117.432 246.878 116.5C254.973 114.416 263.064 112.28 271.17 110.257C280.523 107.921 290.252 105.924 299.205 102.03C299.378 107.221 299.751 112.402 300.321 117.558C296.367 115.476 290.499 112.761 286.502 116.486C284.903 117.976 284.41 120.549 285.042 122.738C285.73 125.12 287.838 126.226 289.229 128.02C284.996 126.811 274.076 118.29 272.132 126.903C270.759 132.986 277.456 136.916 280.73 140.339C277.479 139.631 273.124 136.735 271.215 141.388C269.565 145.411 271.553 149.788 273.588 153.106C274.691 154.904 275.932 156.596 277.105 158.337C277.725 159.259 278.331 160.193 278.982 161.087C279.636 161.984 280.869 162.923 281.327 163.888C282.249 165.834 280.388 165.954 278.941 166.657C277.134 167.535 275.582 169.009 273.93 170.184C270.146 172.875 266.839 175.374 262.368 176.234C257.764 177.119 253.332 178.043 248.789 179.278C244.26 180.509 240.563 181.691 235.934 180.1C233.824 179.375 232.104 178.731 229.866 178.867C227.514 179.01 226.14 178.874 224.206 177.253C215.888 170.274 206.858 164.548 198.272 157.961ZM183.274 150.955C186.489 149.159 189.726 147.353 193.047 145.81C195.796 144.531 199.97 143.042 202.98 143.603C202.131 146.03 200.583 148.021 198.923 149.808C197.454 151.388 195.62 153.774 193.843 154.877C192.229 155.878 190.352 154.292 188.761 153.628C187.012 152.898 184.606 152.558 183.274 150.955ZM184.082 160.019C185.685 159.278 189.128 161.766 190.585 162.413C193.449 163.685 196.328 165.013 198.852 167.019C195.77 170.986 192.28 174.612 188.133 177.16C185.405 178.836 180.806 180.759 178.232 177.715C174.999 173.891 178.886 166.098 181.175 162.82C181.251 163.381 181.327 163.941 181.403 164.502C182.134 163.2 182.691 160.663 184.082 160.019ZM242.902 193.967C240.902 194.436 240.223 194.012 238.904 192.305C238.012 191.151 237.135 189.953 236.13 188.916C235.103 187.857 232.568 185.304 235.798 186.774C238.742 188.113 241.263 188.783 244.502 188.258C248.206 187.659 251.658 185.914 255.31 185.032C253.308 186.983 251.321 188.953 249.315 190.898C247.196 192.953 245.593 193.335 242.902 193.967ZM243.358 209.656C238.978 213.327 230.16 212.93 233.128 204.852C233.579 203.625 234.209 202.471 234.939 201.425C235.183 201.076 235.616 200.353 235.963 200.119C236.932 199.464 236.663 199.385 237.594 200.476C238.398 201.418 244.678 209.109 243.358 209.656ZM242.06 195.62C242.461 195.475 244.152 194.383 244.537 194.987C244.927 195.599 241.612 197.714 242.06 195.62ZM273.948 251.611C272.963 254.236 265.081 258.036 266.55 252.745C267.2 250.401 267.813 248.627 270.267 248.449C271.683 248.347 274.816 249.3 273.948 251.611ZM288.088 216.044C289.385 213.939 293.671 211.094 295.5 214.232C296.382 215.744 294.242 216.519 292.949 216.13C292.255 215.92 291.686 215.458 290.931 215.423C289.96 215.379 289.011 216.228 288.088 216.044ZM291.528 218.133C290.645 219.128 285.324 224.114 284.462 223.345C286.2 220.579 288.195 217.488 291.528 218.133ZM282.837 268.6C280.989 268.717 281.912 265.615 282.09 264.375C282.537 265.239 284.89 268.471 282.837 268.6ZM287.532 263.041C286.934 261.857 285.323 260.093 285.687 258.569C285.966 257.404 288.48 255.836 289.533 256.505C290.931 257.394 288.904 263.238 287.532 263.041ZM331.379 250.618C330.589 253.651 329.77 252.869 327.291 253.457C324.804 254.046 323.085 256.398 320.896 257.659C321.657 255.869 322.128 253.687 323.401 252.234C323.696 251.898 325.5 251.236 324.472 250.459C323.573 249.78 322.281 251.984 321.896 252.585C319.999 255.542 318.673 259.153 317.578 262.555C317.039 264.225 316.608 265.928 316.353 267.683C316.126 269.246 316.371 270.882 316.14 272.406C315.767 274.859 312.775 274.871 310.976 275.504C309.348 276.076 307.726 276.697 306.036 277.005C304.57 277.272 303.049 276.785 301.629 277.107C300.091 277.455 299.4 278.471 297.652 278.242C296.227 278.055 294.893 277.324 293.448 277.251C292.096 277.184 290.748 277.705 289.404 277.281C288.048 276.852 288.113 276.687 288.422 275.203C288.615 275.604 288.808 276.004 289.001 276.404C289.542 275.932 289.916 274.493 290.247 273.817C290.761 272.77 291.179 272.408 290.989 271.104C290.708 269.178 289.149 267.808 288.796 265.976C288.427 264.066 289.696 262.503 290.446 260.907C291.471 258.723 291.457 257.104 290.598 254.845C291.246 255.035 291.893 255.226 292.542 255.417C291.654 253.27 288.642 254.14 287.132 254.776C286.373 255.096 285.17 256.352 284.353 256.32C283.231 256.276 282.646 254.633 282.164 253.728C280.768 251.11 279.174 248.524 277.524 246.093C277.069 245.425 276.475 244.995 276.631 244.233C276.765 243.587 278.067 242.67 278.489 242.272C280.072 240.78 282.088 239.954 283.575 238.384C285.823 236.012 288.415 234.313 290.713 231.987C293.107 229.566 295.574 227.341 298.069 225.052C300.596 222.734 302.786 220.002 305.294 217.66C305.945 218.972 307.204 223.67 308.644 224.033C310.323 224.457 310.273 222.244 310.19 220.912C310.071 219.015 309.125 217.171 309.019 215.36C308.906 213.423 310.58 212.557 311.842 211.436C313.794 209.706 318.111 205.763 315.79 202.518C313.791 199.723 307.289 205.082 305.498 206.694C303.975 208.063 302.798 209.301 301.084 210.382C299.878 211.141 297.855 214.06 296.426 213.791C294.726 213.47 294.062 211.403 291.982 211.471C289.95 211.537 288.224 213.167 286.964 214.804C284.115 218.503 283.136 223.454 280.539 227.31C279.259 229.211 277.599 230.781 276.211 232.58C274.686 234.555 274.362 236.83 272.859 238.762C268.556 232.379 263.869 226.334 259.332 220.16C257.066 217.077 254.847 213.957 252.63 210.831C251.799 209.659 250.862 208.56 250.101 207.329C249.059 205.644 249.246 204.29 248.837 202.41C248.656 201.577 247.806 200.579 248.034 199.783C248.34 198.713 250.487 197.873 251.262 197.435C254.425 195.647 257.294 193.412 260.243 191.227C265.704 187.183 271.229 183.389 277.038 179.935C276.938 181.423 276.068 182.966 276.652 184.459C276.924 183.6 277.355 179.773 278.384 179.608C278.187 179.64 278.349 184.517 278.509 185.212C278.984 187.291 280.363 188.711 282.337 188.697C286.095 188.67 289.464 184.117 291.55 181.101C292.962 179.059 294.319 176.684 294.816 174.128C295.263 171.833 294.771 170.236 296.913 169.071C301.308 166.681 305.739 164.733 310.439 163.465C310.229 165.721 309.641 168.498 311.482 170.121C313.515 171.912 316.174 170.316 318.087 169.131C319.982 167.957 322.905 164.734 325.131 165.67C327.32 166.591 328.844 169.649 330.07 171.68C331.15 173.47 332.326 174.761 331.075 176.756C329.673 178.992 328.76 181.174 327.637 183.603C327.205 184.536 326.793 185.146 327.099 186.102C327.197 186.412 328.323 188.261 328.629 188.526C330.579 190.216 333.212 187.001 334.604 185.781C335.095 191.036 335.205 196.268 335.403 201.54C335.549 205.401 336.891 209.203 334.046 212.025C331.201 214.847 328.827 217.744 327.093 221.564C326.168 223.606 325.337 225.7 324.335 227.699C323.666 229.034 322.255 230.993 323.118 232.564C324.03 231.601 324.301 230.136 325.061 229.05C325.516 231.305 325.974 233.806 328.115 234.761C330.578 235.86 333.027 233.958 335.209 232.9C334.426 238.926 332.9 244.783 331.379 250.618ZM328.861 257.546C327.171 261.57 325.644 266.422 322.522 269.386C321.836 270.036 318.923 272.576 317.815 272.151C316.874 271.789 317.392 269.672 317.556 268.765C318.388 264.159 319.827 261.261 323.18 258.324C324.567 257.107 326.349 255.553 328.139 255.253C330.065 254.93 329.51 255.999 328.861 257.546ZM376.549 353.07C372.166 346.431 365.971 341.272 360.116 336.285C357.464 334.025 354.541 332.332 351.862 330.072C348.833 327.517 345.756 325.052 342.363 323.127C335.93 319.476 328.912 316.932 322.841 312.614C319.88 310.509 316.641 308.474 313.858 306.111C312.635 305.072 311.555 303.744 310.45 302.555C309.423 301.45 307.219 299.846 306.811 298.229C308.519 297.917 309.491 296.071 311.016 295.883C311.518 295.82 314.665 296.747 314.235 295.047C315.377 295.016 315.509 294.997 316.466 294.718C316.862 294.603 317.332 294.783 317.733 294.625C318.346 294.384 318.762 293.688 319.381 293.422C319.822 293.232 321.455 293.444 321.703 293.208C322.38 292.564 321.661 292.621 321.258 291.817C322.572 291.78 323.475 292.52 324.793 291.733C325.194 291.494 325.533 290.942 325.922 290.656C326.612 290.148 326.861 290.935 327.333 289.881C327.775 291.335 327.763 290.933 328.828 290.505C329.89 290.079 330.656 289.772 331.864 289.665C334.752 289.411 337.649 289.801 340.523 289.573C341.574 289.489 342.473 289.223 343.517 289.376C344.437 289.511 344.16 290.223 344.924 289.263C345.102 289.041 344.528 288.43 344.803 288.11C344.924 287.968 345.32 288.068 345.47 287.995C346.814 287.342 346.82 288.254 347.058 289.443C347.846 289.237 348.65 289.051 349.335 288.537C348.989 288.193 348.41 287.813 348.744 287.186C349.881 287.665 350.624 287.444 350.056 288.833C351.199 289.254 351.413 288.706 352.44 288.585C353.047 288.514 353.895 288.934 354.401 288.394C354.954 287.805 354.082 287.163 355.097 286.656C355.305 286.774 355.459 286.952 355.56 287.19C356.108 287.374 356.01 287.615 355.265 287.911C357.261 289.063 356.792 287.775 357.63 286.412C357.824 286.098 358.691 285.122 359.086 285.594C359.685 286.308 358.462 286.536 358.724 287.246C359.178 288.478 360.764 286.899 361.251 286.275C361.62 285.804 361.77 284.9 362.167 284.548C362.718 284.058 363.512 284.814 364.202 284.679C367.356 284.063 370.335 279.34 367.959 276.179C367.32 275.329 366.78 275.498 366.019 274.961C365.266 274.432 364.845 273.514 364.241 272.757C362.863 271.029 361.175 269.734 359.249 268.907C354.779 266.986 349.963 265.586 345.27 264.555C343.096 264.078 340.782 263.348 338.557 263.353C337.246 263.356 335.271 264.491 334.046 263.947C331.662 262.889 335.161 257.476 335.738 255.727C337.434 250.59 338.714 245.112 339.553 239.72C339.717 238.664 339.654 237.297 339.995 236.291C340.387 235.135 340.471 235.298 341.31 235.205C342.825 235.034 344.482 235.919 346.059 235.613C347.808 235.274 349.698 235.432 351.463 234.829C352.275 234.553 353.027 234.252 353.561 233.489C353.729 233.25 353.542 233.042 353.648 232.874C353.681 232.821 354.285 232.096 354.305 232.055C354.299 231.68 354.328 231.307 354.393 230.938C355.004 231.504 354.703 232.691 355.734 232.718C355.918 231.454 355.919 231.198 356.665 230.487C356.608 230.542 357.226 229.956 357.147 230.019C357.184 229.793 357.259 229.583 357.37 229.388C357.718 229.201 358.087 229.101 358.474 229.09C359.279 228.167 358.945 227.675 358.945 226.433C359.595 226.809 360.245 227.185 360.896 227.561C361.053 223.881 363.065 221.866 364.402 218.884C364.971 217.613 365.552 216.62 365.688 215.087C365.766 214.203 365.561 213.422 365.89 212.589C366.188 211.833 366.855 211.425 367.134 210.601C367.683 208.981 367.273 206.911 367.303 205.228C367.345 202.893 367.555 200.567 367.623 198.233C367.757 193.653 367.344 188.945 366.729 184.418C366.435 182.252 365.942 180.151 365.555 178.008C365.237 176.247 364.476 174.595 364.204 172.956C364.091 172.275 364.266 171.664 364.082 170.911C363.839 169.922 363.433 168.948 363.131 167.976C362.426 165.706 361.729 163.438 360.935 161.203C359.398 156.871 357.599 152.669 355.89 148.42C354.246 144.334 352.884 140.121 350.754 136.306C348.656 132.548 346.398 128.853 344.086 125.256C341.678 121.51 338.633 118.291 336.298 114.51C331.913 107.412 325.797 101.562 319.398 96.7322C306.194 86.7645 291.925 76.8124 276.092 73.3947C273.705 72.8801 271.288 72.5228 268.857 72.4561C267.347 72.4145 264.847 73.227 263.419 72.6582C261.818 72.0207 261.965 70.0192 261.565 68.4494C261.049 66.4306 259.888 65.1087 258.568 63.6817C257.179 62.1796 255.919 60.4254 254.186 59.4041C252.431 58.3697 250.36 57.9827 248.415 57.6702C246.679 57.39 244.084 57.6515 242.498 56.8087C241.053 56.041 241.767 55.2416 243.12 55.8988C243.219 55.2343 243.299 54.8051 243.681 54.2916C243.873 54.0332 244.78 53.6712 244.802 53.4301C244.828 53.1484 244.067 52.3451 243.958 51.9814C243.724 51.1982 243.857 50.1135 244.135 49.3785C245.499 50.729 245.894 51.327 247.417 50.0361C248.06 49.4911 248.258 49.2508 249.003 48.9758C249.205 48.9011 249.658 49.1317 249.834 49.0023C250.507 48.5087 249.888 48.625 250.208 48.0416C250.127 48.1888 250.693 46.6381 250.665 46.9623C250.734 46.1363 250.954 46.3902 250.506 45.3754C249.629 43.39 247.396 43.3088 248.534 41.0431C248.981 40.1517 249.376 40.2404 249.502 38.9479C249.57 38.2529 249.486 37.4562 249.483 36.7493C249.477 35.3036 249.722 34.2914 248.505 33.5554C247.336 32.8474 246.258 33.6241 245.783 31.8682C245.286 30.0258 245.787 27.6637 243.995 26.4021C242.685 25.4803 240.794 26.2684 239.347 25.8175C237.897 25.3661 236.564 23.7136 235.092 24.9823C234.046 25.8841 233.492 28.1011 231.521 26.9022C230.632 26.3615 230.143 24.5461 229.582 23.528C228.688 21.9053 227.972 21.3191 226.597 22.8996C225.75 23.8744 223.963 26.2473 223.853 27.5967C223.734 29.0862 224.9 29.7086 223.435 30.5898C221.978 31.4666 221.161 30.8236 219.977 32.6033C218.804 34.3688 219.712 35.3442 218.353 37.0335C216.654 39.1449 215.75 40.0564 215.774 42.9012C215.79 44.8525 214.242 46.538 215.145 48.3891C216.157 50.4637 219.111 51.3264 220.901 52.1708C220.304 53.4011 219.484 54.19 220.181 55.4561C220.814 56.603 222.6 56.8416 223.708 56.6332C224.453 56.4931 224.48 56.6192 225.066 56.0353C225.451 55.6535 224.924 55.1764 225.715 54.965C226.557 54.7384 227.902 56.5764 228.448 57.0363C227.226 58.8025 223.871 59.1327 222.095 60.0275C221.013 60.5738 220.019 61.3817 218.917 61.8697C217.917 62.3124 216.701 62.2098 215.795 62.8947C214.23 64.078 213.579 67.0093 212.619 68.7327C211.534 70.6837 210.481 71.5895 208.397 71.9947C205.799 72.4994 203.706 72.7025 201.282 73.9629C198.322 75.5025 195.405 77.1275 192.498 78.7874C187.809 81.464 183.453 84.2113 179.1 87.4483C174.545 90.8358 170.114 94.3712 165.719 97.9103C161.372 101.411 157.722 105.717 153.946 109.95C150.894 113.372 148.215 117.066 145.174 120.486C141.585 124.526 138.944 129.624 135.616 133.909C133.795 136.253 132.053 138.558 130.91 141.32C129.984 143.559 128.374 145.755 127.299 148.104C125.925 151.106 124.625 154.061 123.083 156.964C122.45 158.156 121.698 159.178 121.03 160.316C120.174 161.772 120.225 163.179 119.995 164.858C119.754 164.448 119.515 164.038 119.274 163.629C118.838 164.688 118.312 165.731 117.934 166.817C117.694 167.509 117.731 168.492 117.49 169.097C117.186 169.858 116.817 169.757 116.438 170.39C116.034 171.067 115.903 171.976 115.477 172.703C113.634 175.843 112.925 179.826 111.978 183.408C110.708 188.214 110.908 193.737 110.978 198.693C111.051 203.926 111.308 209.161 112.014 214.339C112.655 219.03 114.023 223.528 116.165 227.64C118.032 231.223 120.606 233.311 123.903 235.147C125.418 235.989 126.823 235.73 128.412 235.864C130.153 236.011 131.34 236.538 133.183 236.075C134.066 235.852 134.484 235.136 135.186 234.897C135.621 234.749 135.855 234.991 136.272 234.934C136.869 234.854 138.11 234.528 138.757 234.606C140.772 234.851 140.433 238.242 140.632 239.973C140.937 242.64 141.16 245.336 141.571 247.986C142.436 253.559 144.303 258.767 145.406 264.244C140.292 264.939 135.905 266.002 131.112 268.158C126.303 270.32 121.441 271.054 116.38 272.129C111.645 273.135 107.091 275.014 103.302 278.419C101.525 280.013 99.6801 281.88 100.984 284.507C101.819 286.187 103.322 286.614 104.62 287.591C104.882 287.221 104.124 286.438 103.985 286.221C105.076 286.47 105.043 287.037 105.84 287.531C106.536 287.962 107.106 287.947 107.868 288.252C109.729 288.997 110.644 290.855 112.484 291.376C113.063 291.541 113.82 291.933 114.412 292.045C115.123 292.178 115.655 291.832 116.376 291.979C116.764 292.264 117.185 292.468 117.637 292.59C117.933 292.437 118.226 292.275 118.515 292.105C119.55 292.224 120.189 292.949 121.031 293.545C121.087 292.795 121.006 292.015 121.644 291.525C121.893 292.255 121.49 292.717 122.17 293.22C123.032 293.857 124.163 293.061 124.934 292.659C125.153 295.085 130.197 294.943 131.796 294.908C134.01 294.86 136.222 293.882 138.456 294.428C139.596 294.706 140.812 294.997 141.947 295.358C143.313 295.793 144.964 296.181 146.309 296.73C146.844 296.948 147.498 297.647 148.067 297.599C148.521 297.561 148.642 296.818 149.17 296.838C149.766 296.863 149.967 297.604 150.483 297.826C151.257 298.159 151.968 297.526 152.702 297.846C152.966 297.96 153.324 298.454 153.662 298.614C154.175 298.858 155.191 298.861 155.762 298.979C156.572 299.146 157.296 299.033 157.99 299.088C158.549 299.133 158.537 299.552 158.805 299.58C159.112 299.61 159.646 298.435 160.059 298.262C160.659 298.011 161.749 298.609 162.362 298.714C157.924 305.413 152.574 311.334 146.774 316.519C140.519 322.111 134.112 327.697 127.404 332.602C121.313 337.056 115.417 340.908 110.694 347.196C106.712 352.497 100.374 358.17 101.351 365.854C102.327 373.532 109.813 376.656 115.811 378.122C123.355 379.966 131.121 379.223 138.685 380.26C141.911 380.702 145.495 380.466 148.742 380.089C152.577 379.645 155.864 376.857 159.162 374.842C165.093 371.216 170.163 366.364 176.005 362.625C183.319 357.943 190.557 352.983 198.575 349.847C202.306 348.388 206.146 346.723 209.156 343.723C209.604 343.277 209.937 342.603 210.443 342.235C211.303 341.61 211.534 342.244 212.033 342.054C212.417 341.909 212.789 341.446 213.121 341.308C213.962 340.957 214.338 341.101 215.28 341.101C214.472 340.582 213.731 339.244 214.571 338.153C216.008 336.285 216.255 339.27 216.795 339.962C217.253 339.307 217.077 338.724 216.961 337.98C217.347 338.264 217.734 338.548 218.121 338.833C217.854 337.393 218.108 336.066 218.793 334.811C219.425 333.654 219.581 333.817 219.755 332.214C221.718 334.209 222.101 329.367 222.278 327.601C222.448 325.889 222.28 324.66 223.291 323.162C224.376 321.555 226.026 320.539 227.404 319.291C229.581 317.317 231.975 314.825 234.985 316.717C237.361 318.212 238.654 321.874 240.883 323.756C242.235 324.898 243.662 325.013 244.524 326.784C245.221 328.215 245.447 329.929 246.105 331.398C247.699 334.96 249.993 339.036 252.611 341.768C255.047 344.312 258.175 344.299 261.026 345.876C263.849 347.438 266.781 349.13 269.769 350.262C273.032 351.498 276.55 352.023 279.727 353.521C281.361 354.292 282.822 355.452 284.471 356.189C286.249 356.985 288.122 357.545 289.923 358.274C297.061 361.161 304.047 364.703 311.546 366.303C314.871 367.012 317.95 368.941 321.301 369.347C322.738 369.521 323.91 369.742 325.316 370.142C327.522 370.77 327.055 371.104 327.868 373.153C329.205 376.525 332.47 374.528 334.987 374.612C339.016 374.748 342.983 374.022 347.006 373.988C354.04 373.928 360.813 373.045 367.618 370.473C374.449 367.891 382.227 361.668 376.549 353.07Z" fill="#4B4453" fill-opacity="0.8"/>
<path fill-rule="evenodd" clip-rule="evenodd" d="M295.237 89.5613C295.334 89.6686 295.56 89.7337 295.237 89.5613V89.5613Z" fill="#4B4453" fill-opacity="0.8"/>
<path fill-rule="evenodd" clip-rule="evenodd" d="M171.33 233.206C172.857 231.482 179.358 231.83 179.849 234.915C180.397 238.358 174.589 243.558 172.463 245.016C169.727 246.893 166.388 247.244 166.873 242.533C167.24 238.975 169.154 235.661 171.33 233.206ZM176.698 229.656C176.896 230.61 175.435 230.286 175.033 230.059C174.843 229.626 176.499 228.699 176.698 229.656ZM165.488 235.97C166.785 236.1 168.27 233.783 169.249 232.994C169.681 233.738 166.83 237.83 166.516 238.763C165.733 241.095 165.297 244.042 166.365 246.369C169.486 253.167 177.474 243.459 179.471 240.068C180.869 237.696 181.837 234.755 179.862 232.431C179.159 231.603 177.998 231.373 177.345 230.586C176.486 229.552 177.162 228.216 175.434 228.442C174.242 228.598 172.81 229.796 171.651 230.23C170.254 230.751 168.997 231.293 167.778 232.261C167.503 232.479 163.887 235.81 165.488 235.97Z" fill="#4B4453" fill-opacity="0.8"/>
<path fill-rule="evenodd" clip-rule="evenodd" d="M257.123 238.252C256.308 242.923 252.153 247.714 247.78 247.9C243.425 248.085 242.015 243.004 242.784 238.954C243.439 235.5 246.12 229.499 249.944 230.16C252.951 230.68 257.821 234.248 257.123 238.252ZM254.35 230.445C251.589 228.066 247.774 226.965 244.574 228.853C243.525 229.472 239.337 232.202 240.611 234.05C242.33 232.567 243.813 230.509 246.046 230.015C245.671 231.944 243.526 233.678 242.77 235.556C241.887 237.749 241.404 240.259 241.548 242.67C241.806 246.959 244.386 250.293 248.38 249.703C252.037 249.163 255.234 246.042 256.978 242.532C259.308 237.846 257.995 233.586 254.35 230.445Z" fill="#4B4453" fill-opacity="0.8"/>
<path fill-rule="evenodd" clip-rule="evenodd" d="M228.71 248.87C226.744 252.111 223.746 255.161 220.28 256.162C215.793 257.458 217.054 253.329 218.395 250.365C219.58 247.745 221.614 243.237 224.711 243.262C225.763 243.269 227.72 243.835 228.641 244.461C230.457 245.696 229.745 247.164 228.71 248.87ZM224.522 241.745C225.228 240.87 228.352 237.118 228.77 240.042C229.667 238.884 228.959 237.923 227.811 237.8C226.426 237.653 224.911 239.371 223.911 240.225C221.854 241.981 220.27 243.78 218.906 246.242C217.402 248.957 213.569 255.092 216.924 257.785C220.55 260.697 225.828 255.32 228.099 252.547C229.551 250.773 231.474 248.168 230.922 245.567C230.244 242.372 226.907 242.037 224.522 241.745Z" fill="#4B4453" fill-opacity="0.8"/>
<path fill-rule="evenodd" clip-rule="evenodd" d="M209.049 189.499C207.02 192.078 202.898 195.835 199.502 195.392C196.404 194.988 197.613 191.116 198.71 189.242C200.357 186.425 202.563 183.781 205.751 183.627C207.127 183.561 208.911 183.592 209.977 184.753C211.433 186.338 210.122 188.137 209.049 189.499ZM208.834 182.335C206.457 181.421 205.523 181.072 203.213 182.526C201.357 183.694 199.712 185.345 198.439 187.219C196.534 190.024 194.613 196.334 199.505 197.123C204.871 197.989 217.635 185.725 208.834 182.335Z" fill="#4B4453" fill-opacity="0.8"/>
<path fill-rule="evenodd" clip-rule="evenodd" d="M216.148 198.434C214.604 200.191 212.677 201.623 210.477 202.112C211.408 199.8 213.485 194.748 215.949 194.044C217.084 193.719 218.378 194.145 218.285 195.585C218.217 196.626 216.757 197.741 216.148 198.434ZM218.135 192.322C216.857 191.608 217.26 191.121 215.773 191.681C214.601 192.121 213.123 192.886 212.147 193.768C211.614 194.249 209.957 195.954 210.16 196.822C210.527 198.399 211.764 195.982 212.089 195.518C212.646 196.023 209.797 200.562 209.628 201.31C208.996 204.092 210.957 204.386 212.878 203.475C215.47 202.249 223.143 195.117 218.135 192.322Z" fill="#4B4453" fill-opacity="0.8"/>
<path fill-rule="evenodd" clip-rule="evenodd" d="M256.129 267.181C256.32 265.337 256.591 263.387 258.111 262.351C259.481 261.418 260.899 261.553 261.102 263.468C261.29 265.246 259.726 268.404 258.461 269.373C256.699 270.724 256.36 269.041 256.129 267.181ZM258.392 271.378C262.009 269.021 264.289 258.21 257.621 261.239C253.832 262.961 255.226 273.441 258.392 271.378Z" fill="#4B4453" fill-opacity="0.8"/>
<path fill-rule="evenodd" clip-rule="evenodd" d="M227.499 226.547C228.07 225.245 228.722 224.813 229.879 224.243C229.108 225.054 228.32 225.804 227.499 226.547ZM228.334 223.338C227.514 224.254 225.637 225.65 225.9 227.222C226.14 228.658 227.124 228.575 228.017 228.128C229.889 227.19 230.931 223.087 232.89 222.702C230.717 221.169 230.21 221.24 228.334 223.338Z" fill="#4B4453" fill-opacity="0.8"/>
<path fill-rule="evenodd" clip-rule="evenodd" d="M228.621 141.838C228.726 146.208 228.817 150.578 228.904 154.948C228.934 156.484 228.605 158.674 229.019 160.145C229.202 160.793 230.854 163.602 231.441 163.784C233.492 164.42 232.76 158.692 232.774 157.281C232.824 152.522 232.761 147.758 232.744 142.999C232.734 140.547 233.356 119.983 230.499 120.084C230.007 120.101 228.794 122.452 228.612 122.923C228.037 124.404 228.249 126.598 228.262 128.176C228.301 132.728 228.513 137.286 228.621 141.838Z" fill="#4B4453" fill-opacity="0.8"/>
<path fill-rule="evenodd" clip-rule="evenodd" d="M245.921 154.578C246.082 155.786 245.998 157.8 247.219 158.427C248.282 158.972 248.689 158.324 249.086 157.311C250 154.982 249.67 151.421 249.654 149.013C249.62 144.24 249.137 139.487 248.804 134.733C248.657 132.646 248.962 130.551 248.728 128.368C248.625 127.41 248.522 123.556 246.928 123.735C245.486 123.897 245.616 127.936 245.537 128.977C244.884 137.641 244.77 145.93 245.921 154.578Z" fill="#4B4453" fill-opacity="0.8"/>
<path fill-rule="evenodd" clip-rule="evenodd" d="M313.974 254.062C313.362 257.541 303.393 269.657 300.882 262.881C299.393 258.86 302.621 254.484 305.139 252.157C306.697 250.716 308.643 249.303 310.767 249.739C312.57 250.11 314.361 251.852 313.974 254.062ZM308.825 247.821C308.121 248.006 302.235 252.609 302.181 252.549C301.67 251.978 305.382 245.814 305.764 245.275C308.912 240.834 311.001 244.197 312.969 247.688C312.55 245.603 311.397 242.576 309.47 241.694C307.036 240.581 305.139 243.329 303.968 245.304C302.314 248.096 301.402 251.128 300.482 254.279C300.044 255.782 299.544 257.144 298.802 258.499C298.069 259.836 296.787 261.31 296.976 263.001C298.018 262.356 298.572 261.094 299.228 260.054C299.96 260.384 299.708 262.984 299.857 263.646C300.231 265.309 301.251 266.61 302.829 266.896C305.77 267.429 308.945 264.399 310.911 262.341C312.984 260.172 315.214 257.199 315.196 253.861C315.177 250.373 312.097 246.958 308.825 247.821Z" fill="#4B4453" fill-opacity="0.8"/>
<path fill-rule="evenodd" clip-rule="evenodd" d="M316.799 191.913C315.13 194.757 312.202 198.167 309.104 198.827C306.83 199.312 305.33 197.435 306.243 194.901C307.015 192.76 309.644 191.407 311.367 190.465C312.734 189.718 319.108 187.977 316.799 191.913ZM315.571 187.261C312.153 187.117 309.396 189.869 306.847 192.066C307.423 189.543 308.725 186.797 310.558 185.155C313.053 182.92 315.419 184.308 318.045 185.425C317.397 183.148 314.488 182.328 312.635 182.65C310.292 183.058 308.607 185.285 307.423 187.44C306.009 190.011 305.526 193.041 303.862 195.452C303.101 196.556 298.384 200.687 299.453 202.375C301.214 200.292 302.976 198.21 304.737 196.127C305.194 198.588 305.698 201.392 308.519 201.152C310.773 200.96 313.343 198.827 314.991 197.196C317.119 195.09 321.307 187.502 315.571 187.261Z" fill="#4B4453" fill-opacity="0.8"/>
<path fill-rule="evenodd" clip-rule="evenodd" d="M267.689 211.547C266.241 212.288 263.054 213.296 262.244 211.069C261.12 207.974 264.738 202.547 266.461 200.485C267.521 199.217 268.239 198.561 269.717 199.382C270.896 200.037 272.629 201.9 273.081 203.332C274.053 206.407 269.954 210.387 267.689 211.547ZM271.012 196.686C272.19 196.983 272.335 198.65 270.86 198.01C269.756 197.53 269.499 196.307 271.012 196.686ZM272.492 199.035C272.052 197.539 272.947 195.193 270.779 195.085C269.55 195.024 267.299 196.416 266.227 196.981C264.739 197.764 263.34 198.961 262.564 200.646C261.845 202.207 262.358 202.618 263.454 201.323C263.588 201.424 260.975 208.932 260.952 209.684C260.85 213.121 263.035 215.385 266.104 214.776C268.924 214.216 271.466 211.647 273.018 209.055C273.803 207.742 274.448 206.24 274.506 204.633C274.597 202.168 273.121 201.176 272.492 199.035Z" fill="#4B4453" fill-opacity="0.8"/>
<path fill-rule="evenodd" clip-rule="evenodd" d="M290.056 192.183C287.587 190.927 284.83 195.222 286.02 197.774C287.581 201.121 295.196 194.799 290.056 192.183ZM287.112 196.985C286.598 195.968 290.086 194.468 290.637 194.443C290.362 195.004 287.816 198.38 287.112 196.985Z" fill="#4B4453" fill-opacity="0.8"/>
<path fill-rule="evenodd" clip-rule="evenodd" d="M122.032 189.725C121.894 188.638 119.706 190.217 119.719 190.917C120.081 190.11 122.319 191.991 122.032 189.725Z" fill="#4B4453" fill-opacity="0.8"/>
<path fill-rule="evenodd" clip-rule="evenodd" d="M241.684 107.581C244.47 107.353 240.921 91.7025 238.891 93.0864C236.69 94.5864 239.128 107.79 241.684 107.581Z" fill="#4B4453" fill-opacity="0.8"/>
<path fill-rule="evenodd" clip-rule="evenodd" d="M246.886 100.273C249.496 100.689 249.081 94.0156 247.677 92.8213C245.087 90.6166 243.718 99.7677 246.886 100.273Z" fill="#4B4453" fill-opacity="0.8"/>
</svg>
