<?xml version="1.0" encoding="UTF-8" standalone="no"?><svg width="196" height="150" viewBox="0 0 196 150" fill="none" xmlns="http://www.w3.org/2000/svg">
<path fill-rule="evenodd" clip-rule="evenodd" d="M54.5335 110.552C55.3957 111.572 56.669 112.33 57.6459 113.262C58.6718 114.242 59.7853 115.099 60.8071 116.067C65.3148 110.43 71.4897 106.973 76.8391 102.296C79.3751 100.078 81.2435 97.0699 82.6109 93.9828C83.3118 92.4002 83.8297 90.7713 84.235 89.0854C84.4175 88.326 84.5959 87.5691 84.7152 86.7994C84.8598 85.8672 84.8972 85.7877 85.5118 85.0602C85.7764 84.7471 86.2889 83.8322 86.8072 83.933C87.2434 84.018 88.0411 85.3764 88.3168 85.7119C89.6423 87.3258 90.9274 88.9887 92.323 90.54C94.4581 92.9139 96.402 95.2498 98.3844 97.7658C102.44 102.913 106.814 107.759 111.228 112.602C111.556 112.962 112.319 114.015 112.789 114.156C113.361 114.329 114.291 113.611 114.867 113.21C116.257 112.241 117.353 111.043 118.541 109.842C120.86 107.5 122.431 104.212 123.487 101.084C124.12 99.2119 124.531 97.2709 125.183 95.4049C125.455 94.6271 126.072 93.6713 125.759 92.9939C125.666 92.792 125.072 92.2555 124.863 92.2145C124.616 92.1658 124.203 92.5129 124.117 92.4889C123.297 92.259 123.752 91.3799 123.264 90.9068C122.987 90.6385 121.579 90.6777 121.159 90.5303C119.622 89.9908 118.243 88.9619 116.79 88.3477C110.708 85.7766 104.552 83.2756 99.3007 79.077C97.9388 77.9883 97.034 77.1701 95.4092 76.4664C93.7671 75.7553 92.1165 75.1209 90.441 74.5004C88.9628 73.9529 87.4765 73.4397 85.9494 73.0473C84.2982 72.6229 81.9557 72.0848 80.3059 72.6314C77.0659 73.7047 76.0196 76.4361 74.7293 79.3176C72.9837 83.216 70.873 86.9051 68.5848 90.4934C64.1828 97.3973 58.8291 103.592 54.5335 110.552Z" fill="#006A6A"/>
<path fill-rule="evenodd" clip-rule="evenodd" d="M152.11 49.5176C152.288 49.425 153.68 50.0047 153.914 50.0934C154.847 50.4477 155.726 51.0363 156.605 51.5152C155.931 52.3543 155.257 53.1936 154.584 54.0328C153.923 52.3752 153.074 51.0074 152.11 49.5176ZM151.65 59.8311C151.879 59.8574 149.944 64.6166 149.718 65.151C148.895 67.0945 148.032 69.0191 147.198 70.9578C146.391 72.8365 145.366 74.5648 144.334 76.3199C143.452 77.8209 142.544 80.1502 141.212 81.2619C142.053 77.4459 141.942 73.0582 144.354 69.8541C146.853 66.5324 149.325 63.2889 151.65 59.8311ZM54.5336 110.722C58.2687 104.67 62.9444 99.3162 66.8393 93.3725C69.0203 90.0443 71.143 86.6736 72.9788 83.1311C74.3141 80.5541 75.1441 76.8773 77.2065 74.9072C78.1153 74.0393 79.0864 73.1897 80.306 72.8008C81.9749 72.2688 84.2729 72.7961 85.9495 73.2168C89.0738 74.0006 92.1259 75.2178 95.0853 76.4961C98.0871 77.7926 100.648 80.1215 103.36 81.9926C106.27 84 109.419 85.4623 112.679 86.7424C115.517 87.857 118.042 89.4572 120.865 90.5791C121.427 90.8027 122.575 90.7699 123.047 91.0615C123.556 91.3754 123.356 92.3023 123.973 92.6443C124.251 92.7986 124.344 92.2393 124.558 92.2484C124.819 92.2596 125.058 92.5736 125.31 92.7725C126.336 93.5824 125.707 94.1225 125.301 95.2369C123.977 98.8682 123.265 102.563 121.406 105.991C119.877 108.809 117.689 111.334 115.114 113.199C114.722 113.483 113.444 114.583 112.985 114.51C112.571 114.444 111.728 113.318 111.442 113.012C110.145 111.624 108.959 110.131 107.663 108.741C105.66 106.593 103.732 104.387 101.787 102.21C99.5308 99.6816 97.5335 96.8174 95.5009 94.1164C94.5659 92.8738 93.3623 91.8617 92.3231 90.7096C90.9256 89.1604 89.6424 87.4949 88.3167 85.8815C87.9158 85.3932 87.2439 84.1441 86.6206 84.1588C86.1839 84.1691 85.4138 85.2213 85.1853 85.551C84.3362 86.7766 84.3401 88.9898 83.9178 90.5197C82.8874 94.2502 81.0294 97.8938 78.4812 100.772C75.9473 103.635 72.7014 105.671 69.7044 107.972C66.4578 110.465 63.3819 113.016 60.8072 116.236C59.7854 115.268 58.6719 114.412 57.646 113.432C56.6689 112.499 55.3956 111.742 54.5336 110.722ZM102.613 127.843C101.887 127.85 100.657 128.307 100.008 128.032C101.934 125.851 103.704 123.979 106.142 122.38C108.672 120.721 111.193 119.077 113.65 117.308C118.602 113.742 122.245 109.513 124.313 103.574C124.846 102.045 125.202 100.441 125.593 98.8688C125.803 98.0221 126.221 94.0611 126.931 93.7191C127.351 93.5164 130.516 95.7924 131.018 96.076C132.19 96.7395 133.367 97.2539 134.579 97.7731C137.185 98.8893 139.871 99.7406 142.634 100.451C145.946 101.304 148.202 99.8936 150.255 97.2297C152.583 94.2074 154.517 90.7975 156.646 87.6236C157.614 86.1801 158.416 84.7389 159.131 83.1467C159.599 82.1049 161.454 79.2941 160.813 78.1842C158.984 79.6092 158.326 82.4426 157.079 84.3506C155.526 86.7285 153.776 88.9705 152.215 91.3463C150.902 93.3439 149.563 95.7649 147.623 97.201C145.918 98.4641 144.297 98.0758 142.461 97.508C140.236 96.8201 137.929 96.4811 135.748 95.6277C133.388 94.7045 131.156 93.3947 128.853 92.3268C127.78 91.8287 126.494 91.5457 125.483 90.9248C124.611 90.39 124.741 90.1076 124.677 88.9688C124.602 87.64 124.516 86.3104 124.459 84.9805C124.42 84.0869 124.892 82.8754 124.572 82.2084C127.186 82.6721 129.741 83.2932 132.337 83.8426C133.758 84.1434 135.128 84.5152 136.564 84.7516C137.111 84.8416 137.859 84.8391 138.349 85.083C138.74 84.9682 138.939 85.0412 138.947 85.302C138.966 85.4436 138.995 85.5832 139.036 85.7205C139.838 86.0936 140.304 85.2934 140.999 84.5258C141.857 83.5785 142.499 82.5117 143.129 81.3986C144.536 78.91 146.158 76.5693 147.46 74.0106C148.787 71.4022 149.865 68.6094 150.991 65.9031C152.023 63.4203 152.684 60.7352 153.825 58.3111C154.334 57.2291 154.979 56.3344 155.733 55.4203C156.354 54.666 157.311 53.0389 158.239 52.6924C158.485 52.6008 159.128 52.7547 159.407 52.7344C159.963 52.6938 160.458 52.485 161.027 52.5307C162.258 52.6293 163.601 53.4262 164.585 54.1268C163.949 54.7068 162.358 55.4119 163.501 56.4568C164.61 57.4713 165.223 55.6516 165.646 54.8543C167.639 56.5287 167.351 58.8375 167.581 61.2033C167.701 62.4385 168.018 63.6549 168.222 64.8715C168.369 65.7471 168.266 66.6527 168.307 67.5467C168.415 69.8184 168.638 71.9928 168.627 74.2326C168.615 76.6268 168.456 78.9389 168.269 81.3156C167.954 85.3172 167.231 89.3201 166.612 93.2899C166.264 95.5213 165.787 97.6893 165.324 99.8846C164.799 102.376 163.827 104.736 163.282 107.221C162.727 106.499 162.309 106.496 161.411 106.591C160.72 106.665 160.256 106.497 160.296 107.478C160.323 108.114 160.871 108.6 161.478 108.711C162.27 108.856 162.539 108.452 162.947 107.838C163.042 109 162.279 110.215 161.977 111.349C161.691 112.424 161.501 113.478 161.021 114.507C160.553 115.511 160.151 116.502 159.677 117.496C159.459 117.953 159.254 118.418 159.034 118.874C158.922 119.105 158.79 119.424 158.624 119.618C158.233 120.075 158.295 119.854 157.838 120.114C156.841 120.68 157.215 120.539 157.192 121.709C157.169 122.863 156.591 123.711 155.663 124.36C153.695 125.736 151.754 126.119 149.517 126.814C147.432 127.463 145.237 128.019 143.03 128.006C140.326 127.99 137.659 127.628 134.955 127.591C131.973 127.551 128.962 127.567 125.985 127.673C124.759 127.716 123.62 127.772 122.437 128.092C121.062 128.464 119.732 128.317 118.316 128.26C115.293 128.14 112.166 127.901 109.183 127.879C107.035 127.864 104.769 127.71 102.613 127.843ZM24.2355 129.042C23.6982 129.332 22.4936 129.213 21.9534 129.132C21.0018 128.99 20.8999 128.604 20.2961 127.736C19.2569 126.241 18.4131 124.809 17.8017 123.077C16.6316 119.763 16.1538 116.372 15.6401 112.904C15.0691 109.052 16.1118 105.058 16.4848 101.231C16.5705 100.354 16.6877 99.4836 16.8232 98.6123C16.9043 98.0914 16.9255 96.3193 17.2606 95.8684C17.9042 95.002 20.8974 95.7008 22.0743 95.7793C25.3591 95.9988 28.6655 96.0502 31.9489 96.0883C33.6995 96.1086 35.4599 96.1836 37.1932 96.1975C37.9892 96.2039 38.7675 96.1635 39.5664 96.0842C39.8336 96.0578 40.0946 95.9949 40.3637 95.9797C41.2853 95.9275 41.216 95.7908 41.4543 96.6258C41.8716 98.0887 41.5505 99.9498 41.6601 101.468C41.8067 103.497 41.8859 105.555 41.8496 107.588C41.816 109.467 41.8786 111.341 41.8101 113.224C41.7815 114.004 41.6982 114.64 41.4972 115.385C41.2699 116.227 41.0198 118.194 40.4536 118.777C40.3893 118.843 39.9081 118.688 39.7804 118.854C39.5835 119.108 39.6196 119.646 39.4845 119.811C39.0471 120.343 38.1433 120.386 37.4876 120.625C35.6884 121.281 34.038 121.994 32.3423 122.879C30.8272 123.67 28.3843 124.343 27.4734 125.903C27.0557 126.618 26.9994 127.562 26.6154 128.299C26.178 129.14 27.0531 128.701 25.9816 129.042C25.499 129.195 24.7301 129.042 24.2355 129.042ZM183.965 119.534C184.101 121.475 185.17 123.324 185.542 125.233C185.716 126.127 186.011 127.005 186.216 127.894C186.412 128.746 187.121 129.755 187.049 130.599C184.432 129.645 181.782 129.405 179.047 129.148C176.455 128.904 173.717 128.807 171.146 128.806C168.527 128.804 165.726 128.543 163.03 128.502C160.209 128.46 157.346 128.385 154.567 128.086C156.02 126.984 157.839 125.95 158.912 124.417C160.079 122.752 160.684 120.664 161.711 118.907C163.771 115.379 165.081 111.002 166.161 107.039C168.341 99.0385 170.777 91.1857 171.364 82.8873C172.482 83.4729 173.369 85.7445 173.928 86.8758C174.643 88.3201 175.017 89.8858 175.481 91.4209C176.437 94.5828 177.098 97.8613 178.269 100.993C180.506 106.98 181.944 113.431 183.965 119.534ZM41.9202 72.9059C41.4363 76.484 40.4216 80.1084 40.3826 83.7297C40.374 84.5264 40.5059 85.4111 40.3437 86.1967C40.1703 87.0354 39.6066 87.7768 39.2812 88.5738C38.7646 89.8391 37.4564 92.4324 38.718 93.5045C38.7436 92.4871 39.6536 91.1951 40.1119 90.3055C40.8028 88.965 41.7105 87.7395 42.4593 86.4322C44.0269 83.6961 45.7835 81.0186 47.8037 78.6065C49.7714 76.2568 52.0392 74.1727 54.1258 71.9354C54.7527 71.2631 59.7819 64.793 59.9818 64.8834C58.4218 71.0385 55.77 76.394 52.1409 81.5475C50.3616 84.0738 48.2261 85.7363 46.0601 87.8766C44.2564 89.659 40.8568 91.5649 41.4804 94.4854C38.6608 94.208 35.8596 93.7648 33.0144 93.7648C33.4823 90.0803 33.8406 86.4541 34.6759 82.8301C35.6243 78.715 36.2666 74.477 37.0691 70.3254C37.888 66.0871 39.2772 61.984 40.1413 57.7537C40.9688 53.7029 41.6797 49.6594 42.2864 45.5635C42.7876 47.833 42.6027 50.3258 42.7806 52.6414C42.9623 55.0072 42.9448 57.3295 42.8842 59.7092C42.7722 64.1293 42.3118 68.4961 41.9202 72.9059ZM29.7021 51.832C29.6862 49.94 29.3279 48.0736 29.2174 46.1861C29.1834 45.607 28.6197 41.6561 29.1454 41.4498C29.5778 42.4143 29.6786 43.6484 30.0713 44.6604C30.4635 45.6713 30.9883 46.6344 31.3647 47.6524C32.1802 49.8576 32.4616 52.3529 32.5494 54.6975C32.7481 60.0006 32.8508 65.2918 32.5024 70.5949C32.3532 72.868 32.2386 75.1449 32.2795 77.4225C32.3243 79.9285 32.6994 82.1037 32.244 84.5893C31.7931 87.0506 31.5098 89.5018 31.3596 91.999C31.2542 93.7518 31.2118 93.6277 29.5774 93.5045C28.3975 93.4154 27.206 93.5106 26.0244 93.4553C26.5768 86.624 26.6671 79.7787 27.5496 72.9736C27.9999 69.502 28.0119 65.9801 28.5712 62.5213C28.8492 60.8031 29.3155 59.1195 29.5835 57.3994C29.8712 55.5525 29.7296 53.6932 29.7021 51.832ZM149.22 47.533C146.074 47.8119 142.727 48.7744 139.502 48.1389C140.034 47.9186 141.425 47.6147 140.799 46.7451C140.162 45.8609 139.089 46.9824 138.454 46.8666C138.063 46.7951 137.198 45.1207 136.957 44.774C136.409 43.9861 136.343 43.8488 135.358 43.6469C134.404 43.4516 134.188 43.6631 134.067 42.6926C133.928 41.5766 134.305 40.3219 134.268 39.1807C134.188 36.7238 133.413 34.5693 132.692 32.2578C135.755 32.9397 138.751 33.7482 141.883 34.1877C143.222 34.3756 145.305 34.809 146.521 33.8777C146.837 33.6356 146.787 33.3086 147.045 33.0279C147.48 32.557 148.285 32.0699 148.9 31.9357C152.689 31.1106 153.059 36.6365 151.16 38.7043C150.684 39.2225 150.023 39.4783 149.536 39.9531C148.886 40.5863 148.833 41.2533 148.738 42.2199C148.56 44.0324 148.801 45.852 149.557 47.51L149.22 47.533ZM103.245 73.6209C102.127 73.8381 100.96 73.7885 99.8383 73.9738C99.4399 74.0397 98.2455 74.2693 97.8952 74.0311C97.3603 73.6672 97.1702 72.3326 96.9173 71.7111C96.4725 70.618 95.8432 69.6645 95.419 68.5514C93.6857 64.0049 92.0694 59.4402 89.9731 55.049C90.7765 54.8354 91.3935 54.827 92.2032 54.7166C93.0468 54.6016 93.8115 54.0912 94.6163 53.8719C95.3812 53.6635 96.1825 53.7166 96.9404 53.4742C97.3579 53.3408 97.7162 53.0441 98.1277 52.9404C98.7838 52.7754 99.5495 52.6789 99.9397 53.1195C100.34 53.5715 100.48 54.8107 100.698 55.3945C101.277 56.9498 101.95 58.4508 102.436 60.0418C102.874 61.4768 103.29 62.8965 103.676 64.3445C104.083 65.8733 104.886 67.1332 105.375 68.5936C105.747 69.7051 106.098 70.8414 106.154 72.0266C106.208 73.183 106.372 73.2566 105.242 73.4414C104.671 73.5346 103.782 73.8814 103.245 73.6209ZM29.6587 127.745C29.3674 127.884 29.0927 127.866 28.835 127.69C31.3605 126.598 33.8171 125.085 36.4518 124.336C38.9233 123.634 41.3254 122.795 43.7064 121.93C45.6411 121.227 47.3805 120.68 49.1296 119.443C50.1914 118.692 51.1346 117.848 51.8641 116.751C52.6764 115.53 52.8572 113.791 53.7368 112.691C54.9241 114.026 56.319 115.036 57.7237 116.096C58.2097 116.463 59.3755 117.263 59.5418 117.83C59.7516 118.546 59.1896 119.231 58.9116 119.956C58.1998 121.813 57.852 123.668 57.4658 125.598C57.311 126.371 56.9768 127.534 56.3558 127.858C55.7904 128.153 54.1529 127.938 53.4493 127.884C49.7785 127.599 46.1727 127.308 42.4797 127.567C38.3008 127.86 33.8268 128.063 29.6587 127.745ZM22.3268 93.3482C21.6596 93.3506 21.0079 93.2652 20.3433 93.2652C20.7269 91.4322 19.8299 89.0604 19.5119 87.2307C19.1561 85.184 18.8852 83.0676 18.648 81.0045C18.1478 76.659 17.9212 72.3662 17.9147 67.9889C17.9086 63.7531 17.155 59.8824 16.0994 55.8106C14.9659 51.4375 13.1096 47.5049 11.5749 43.2875C13.2583 44.1981 14.1903 46.3287 15.0748 47.9576C16.1931 50.0172 16.9379 52.2977 17.3946 54.6098C18.2755 59.0701 19.2418 63.544 20.2583 67.9969C21.3168 72.6334 21.9391 77.3125 23.1516 81.9111C23.743 84.1537 24.5471 86.9127 24.5917 89.2254C24.6102 90.182 24.892 92.1855 24.4682 93.0164C24.0719 93.7938 23.1957 93.4275 22.3268 93.3482ZM123.032 87.5955C123.067 88.0717 123.1 88.5246 123.183 88.9949C122.258 88.9859 121.088 88.0049 120.296 87.5645C119.33 87.0279 118.363 86.4361 117.419 85.8969C115.596 84.8555 113.526 84.1693 111.58 83.3139C109.344 82.3311 107.288 81.1436 105.15 79.9604C104.403 79.5471 99.0348 77.1662 99.1249 76.5158C100.304 76.4756 101.482 76.4356 102.661 76.3955C103.671 76.3611 105.236 76.5947 106.204 76.2752C106.734 76.1 107.329 75.4553 107.529 74.9504C107.727 74.4508 107.282 72.1529 107.54 72.0065C108.859 73.3844 109.689 75.2158 110.868 76.7023C112.171 78.3453 113.855 79.3047 115.711 80.1777C117.761 81.142 119.882 81.8887 121.977 82.715C122.861 83.0635 122.843 83.2629 122.92 84.2539C123.006 85.3615 122.997 86.485 123.032 87.5955ZM16.5245 129.267C14.3027 129.511 12.0257 129.372 9.78659 129.563C8.97187 129.632 7.84237 129.735 8.66206 130.854C9.17823 131.558 10.8317 131.332 11.5817 131.381C13.5954 131.512 15.7275 131.442 17.7458 131.411C18.1707 131.405 18.6403 131.276 19.0698 131.305C19.5656 131.338 20.1592 131.703 20.6111 131.7C20.8896 131.698 20.9894 131.398 21.2296 131.37C21.7528 131.31 22.2758 131.266 22.8035 131.266C30.7808 131.268 38.6486 131.104 46.606 131.095C50.4111 131.091 54.2772 131.024 58.0807 130.841C58.8794 130.803 63.4279 130.97 63.3019 129.498C63.2372 128.741 61.7527 128.634 61.2109 128.553C60.8095 128.494 60.393 128.503 59.9908 128.481C58.9222 128.422 58.4541 128.686 58.6795 127.489C59.5345 122.952 61.0666 119.202 64.34 115.939C67.0167 113.271 70.2397 110.852 73.2714 108.624C76.9526 105.919 79.9389 103.074 82.1244 98.9346C83.4007 96.5174 84.4691 94.0461 85.1248 91.3734C85.3608 90.4119 85.3663 89.3184 85.6555 88.3914C85.8779 87.6777 86.3849 87.1783 86.6834 86.4391C90.3459 92.6981 95.2 97.9346 99.6508 103.578C101.778 106.274 104.204 108.835 106.745 111.18C107.499 111.876 108.202 112.603 108.906 113.352C109.495 113.979 110.429 114.536 110.926 115.232C111.403 115.899 111.286 115.867 110.56 116.397C109.601 117.097 108.543 117.679 107.569 118.362C106.011 119.454 104.311 120.376 102.918 121.689C101.412 123.11 100.096 124.756 98.7792 126.358C97.9017 127.426 96.7503 128.796 96.5296 130.146C96.4565 130.592 96.1789 131.697 96.5452 132.024C96.8583 132.304 96.8268 132.198 97.2155 132.027C97.7248 131.804 97.8746 131.291 98.4967 131.047C100.089 130.422 102.015 130.636 103.671 130.629C105.328 130.621 106.999 130.812 108.655 130.805C112.437 130.789 116.138 131.102 119.919 131.27C123.935 131.449 128 131.02 132.002 131.081C134.967 131.126 138.011 130.899 141.059 131.068C142.626 131.154 144.165 130.954 145.694 130.931C147.695 130.902 149.749 131.18 151.768 131.22C155.08 131.285 158.352 131.285 161.684 131.366C168.853 131.542 175.982 131.723 183.155 131.839C184.112 131.855 185.159 131.821 186.104 131.932C187.108 132.049 186.59 132.267 187.278 132.637C189.206 133.671 188.761 129.836 188.715 129.082C188.467 125.04 187.464 121.075 186.259 117.238C185.115 113.598 184.187 109.789 183.219 106.07C182.159 102.001 180.777 98.0975 179.523 94.0678C178.238 89.9385 177.192 85.6483 174.858 81.9879C174.326 81.1543 173.777 80.2572 172.922 79.7316C171.963 79.1424 171.922 79.4865 171.923 78.4082C171.923 77.3926 171.862 76.0357 172.096 75.0666C172.308 74.191 172.275 74.7102 172.752 74.0813C173.14 73.5697 173.546 73.2201 173.824 72.599C175.534 74.3727 179.447 73.4367 181.099 72.1596C183.121 70.5963 184.661 67.959 185.225 65.4473C185.678 63.4303 185.122 59.5856 182.94 58.6156C181.876 58.1428 177.97 57.7854 177.813 56.2443C177.733 55.4488 179.108 54.3303 179.425 53.6463C180.013 52.3791 180.578 50.6936 180.741 49.3045C181.06 46.5932 179.857 43.5613 177.941 41.7299C174.425 38.3701 168.24 36.6459 163.718 38.7775C164.674 35.0426 165.25 31.8205 164.769 27.9354C164.355 24.5883 162.424 22.7156 159.769 21.0484C155.236 18.2031 149.073 17.08 143.891 17.9074C142.714 18.0955 141.584 18.4988 140.493 18.8197C138.909 19.2859 137.013 19.1306 135.517 19.8881C134.433 20.4371 133.609 21.5309 132.657 22.2611C131.545 23.1137 130.621 24.3861 129.848 25.5629C128.196 28.0793 128.842 32.7496 130.225 35.2756C130.521 35.8174 130.888 36.2734 131.378 36.6432C131.889 37.0279 132.668 37.1477 132.931 37.6467C133.605 38.925 132.955 41.6924 132.865 43.074C132.76 44.6783 133.553 45.8834 135.331 46.0113C136.359 46.0856 136.392 45.475 136.885 46.7313C137.204 47.5455 137.494 48.4326 137.954 49.1791C138.904 50.7176 140.643 50.5674 142.228 50.5258C144.062 50.4773 145.868 50.1809 147.703 49.9938C147.219 51.5826 145.892 52.8158 145.064 54.2313C143.943 56.1457 143.269 57.7326 143.087 59.9631C142.947 61.6768 143.249 63.0301 144.395 64.3055C144.87 64.8334 145.29 64.8594 145.172 65.4684C145.1 65.8399 144.473 66.4527 144.25 66.7492C143.663 67.5336 142.98 68.2535 142.463 69.0912C140.472 72.3143 139.884 77.2275 139.879 80.9795C139.879 81.1516 139.79 81.5174 139.864 81.6953C139.919 81.8268 140.336 82.243 140.343 82.2787C140.424 82.7611 139.965 83.5881 139.243 83.6699C138.486 83.7557 137.098 83.1088 136.393 82.8963C135.265 82.5561 134.116 82.3049 132.991 81.9555C131.173 81.3912 129.364 80.9412 127.516 80.499C126.681 80.2994 125.842 80.133 125.004 79.9463C124.05 79.7338 123.607 79.3231 123.114 80.3162C122.692 81.1686 122.955 81.323 121.931 80.8936C120.915 80.4668 119.922 79.9379 118.93 79.4563C117.181 78.607 115.097 77.85 113.587 76.5963C111.07 74.5047 110.137 71.1738 107.728 68.9545C107.057 68.3365 106.657 68.3256 106.232 67.4695C105.778 66.5533 105.544 65.3783 105.305 64.3928C104.887 62.667 104.59 60.9352 104.21 59.2109C103.738 57.0629 102.717 55.1176 101.972 53.0688C101.681 52.2705 101.531 51.2559 101.063 50.5385C100.939 50.3482 100.702 50.241 100.605 50.0836C100.272 49.5432 100.275 49.3947 100.189 48.7445C99.785 45.7065 98.0126 47.3047 96.0758 48.0014C95.2598 48.2949 91.3849 50.1986 92.8645 51.4647C91.1006 51.9883 88.2757 51.7037 88.2993 54.29C88.3115 55.6152 89.0862 57.0328 89.5019 58.2733C89.8713 59.3746 90.2283 60.4803 90.6034 61.5799C91.4252 63.9887 92.4222 66.3254 93.2241 68.7416C93.5897 69.8428 93.8913 70.9697 94.4002 72.009C94.849 72.9258 95.9357 73.9363 96.1148 74.9389C91.4145 72.8871 87.0662 69.9207 81.805 70.1098C79.5014 70.1924 77.4107 71.1832 76.1384 73.2557C74.5433 75.8533 73.4938 78.7617 71.9348 81.3834C66.2632 90.9203 59.4988 99.5844 53.2727 108.727C52.7945 109.429 52.1795 110.093 52.0136 110.962C51.9054 111.528 52.1154 112.095 51.9855 112.639C51.7162 113.77 50.3553 115.181 49.4326 115.831C47.6638 117.077 44.7884 118.834 42.5811 118.679C43.9664 115.272 43.9479 111.54 43.8836 107.907C43.8223 104.455 43.4577 101.032 43.0249 97.6158C42.927 96.843 42.8417 96.1266 42.6246 95.3775C42.3755 94.5182 42.0334 94.5996 42.7796 93.8272C43.928 92.6377 45.294 91.659 46.4518 90.4547C48.9557 87.8504 51.5221 85.8092 53.4928 82.6992C55.367 79.7412 57.3442 76.6977 58.7316 73.4584C60.1599 70.1238 60.7308 66.5627 61.4398 63.0313C61.7275 61.5983 62.7766 59.9984 62.5659 58.502C62.2994 56.6108 61.4423 57.9879 61.0933 59.0057C60.0286 62.1125 57.5353 64.8932 55.4703 67.3918C53.2391 70.091 50.5103 72.3494 48.1815 74.9701C45.6455 77.8244 43.9084 81.1047 41.6532 84.1516C41.6532 80.3703 42.915 76.5199 43.4311 72.7793C43.8853 69.4869 44.0279 66.1842 44.315 62.8776C44.9669 55.3662 44.4035 47.6336 43.4886 40.176C43.0537 36.6342 43.3004 33.1758 43.2872 29.6219C43.283 28.4908 43.7406 25.884 43.1574 24.8803C42.0405 22.9578 41.389 27.1615 41.3325 27.7883C40.9948 31.5219 41.6005 35.2139 41.2911 38.9315C40.9677 42.8137 40.266 46.5869 39.6689 50.4242C39.0219 54.5791 37.9688 58.6402 36.9605 62.7154C35.9018 66.9941 35.0115 71.3621 33.8345 75.6066C33.517 74.2725 33.9624 72.6334 34.0504 71.2746C34.176 69.3301 34.4213 67.3852 34.4425 65.4356C34.4764 62.3283 34.5001 59.1635 34.3283 56.0707C34.159 53.0223 34.2102 49.8279 33.2964 46.891C32.8627 45.4971 32.2266 44.1371 31.6043 42.824C30.8365 41.2049 30.5651 39.635 30.14 37.9129C29.7757 36.4381 29.2428 35.0022 29.0002 33.4979C28.8494 32.5623 28.4284 29.8006 27.3816 31.893C26.7738 33.1074 27.0365 34.9078 27.0195 36.2125C26.9977 37.8852 27.248 39.5115 27.2863 41.1772C27.361 44.4451 27.4146 47.7092 27.6529 50.9717C27.9027 54.3945 27.6845 57.4621 27.0481 60.8348C26.3515 64.5266 26.1477 68.2264 25.7867 71.9633C25.6006 73.8928 25.2868 75.8115 25.1352 77.7438C25.055 78.767 25.4662 81.7012 24.7496 82.4299C24.6803 80.6576 24.184 78.8838 23.8077 77.1568C23.362 75.1109 23.182 72.9602 22.8535 70.885C22.3214 67.5229 21.2891 64.3121 20.6061 60.9877C19.1983 54.1348 18.0285 45.3272 12.1284 40.8416C11.3565 40.2547 10.5082 39.8215 9.67359 39.3385C9.20113 39.065 8.49923 38.3576 7.95862 38.2342C7.36858 38.0994 7.12252 38.2041 6.88333 38.9045C6.54985 39.8809 7.15974 40.3369 7.72917 41.0461C9.69974 43.5 10.5416 46.6457 11.7583 49.5236C14.5445 56.1137 15.7773 63.0645 15.7914 70.1879C15.7989 73.917 16.0503 77.5137 16.439 81.2201C16.8572 85.209 17.4079 89.4277 18.5924 93.265C17.4045 93.5375 16.1156 93.1313 15.7932 94.5441C15.714 94.8912 15.8571 95.3016 15.7695 95.7533C15.6844 96.1924 15.4795 96.6291 15.3583 97.0609C15.1079 97.9541 14.9754 98.8354 14.8536 99.7525C14.3827 103.297 13.5741 106.668 13.488 110.262C13.4088 113.584 14.0444 116.95 14.6301 120.208C15.2201 123.49 16.9124 126.288 18.2446 129.255C17.6712 129.255 17.0979 129.261 16.5245 129.267Z" fill="#4B4453"/>
<path fill-rule="evenodd" clip-rule="evenodd" d="M91.9267 121.724C92.5585 121.906 95.6088 122.251 95.6082 123.231C95.6078 123.818 92.5616 123.806 92.0225 123.87C91.9904 123.155 91.9585 122.439 91.9267 121.724ZM85.1938 128.481C83.436 128.823 81.0501 128.342 79.9263 126.757C79.4012 126.016 79.1522 124.889 78.9812 124.005C78.8178 123.163 78.314 121.06 78.6569 120.27C79.0778 119.3 83.1165 120.314 84.2926 120.425C86.3444 120.619 88.4662 120.642 90.5194 120.505C90.5194 122.674 90.6278 124.788 89.3809 126.655C88.4813 128.002 86.7919 128.32 85.1938 128.481ZM85.5471 131.161C87.457 130.445 89.4621 130.91 90.7057 128.812C91.0213 128.28 91.287 127.708 91.4779 127.117C91.5712 126.858 91.6438 126.592 91.6953 126.321C91.5981 125.736 91.8076 125.571 92.3233 125.826C93.3356 125.625 94.4457 126.336 95.512 126.126C98.0982 125.618 97.6284 121.827 95.8928 120.515C95.55 120.256 95.2075 120.184 94.815 120.056C93.9499 119.774 93.4817 120.089 92.6904 120.009C92.0509 119.944 91.8751 119.258 91.1879 118.956C90.738 118.758 90.1134 118.773 89.6404 118.753C87.1649 118.649 84.6816 118.65 82.1903 118.485C81.0283 118.408 79.7738 118.597 78.6355 118.393C78.1025 118.298 78.1791 117.935 77.6744 118.254C77.1519 118.583 77.3775 119.802 77.4039 120.289C77.5564 123.1 77.72 126.114 79.1918 128.572C80.5383 130.821 83.1881 131.051 85.5471 131.161Z" fill="#4B4453"/>
<path fill-rule="evenodd" clip-rule="evenodd" d="M186.411 131.935C185.797 131.928 185.183 131.922 184.57 131.915C185.185 131.922 185.798 131.929 186.411 131.935Z" fill="#4B4453"/>
<path fill-rule="evenodd" clip-rule="evenodd" d="M15.7877 71.9982C15.7889 71.3943 15.7902 70.7904 15.7915 70.1877C15.7904 70.792 15.7891 71.3951 15.7877 71.9982Z" fill="#4B4453"/>
<path fill-rule="evenodd" clip-rule="evenodd" d="M172.094 74.4783C172.096 75.0666 172.098 75.6549 172.1 76.2418C172.098 75.6531 172.097 75.0656 172.094 74.4783Z" fill="#4B4453"/>
<path fill-rule="evenodd" clip-rule="evenodd" d="M121.018 131.268C120.529 131.269 120.04 131.27 119.553 131.271C120.043 131.27 120.53 131.269 121.018 131.268Z" fill="#4B4453"/>
<path fill-rule="evenodd" clip-rule="evenodd" d="M150.701 131.148C150.212 131.15 149.723 131.151 149.237 131.153C149.726 131.152 150.214 131.15 150.701 131.148Z" fill="#4B4453"/>
<path fill-rule="evenodd" clip-rule="evenodd" d="M43.819 106.716C43.8404 107.113 43.8622 107.51 43.8835 107.907C43.862 107.509 43.8404 107.113 43.819 106.716Z" fill="#4B4453"/>
<path fill-rule="evenodd" clip-rule="evenodd" d="M16.5244 129.267C16.9022 129.263 17.2799 129.259 17.6577 129.255C17.2782 129.093 16.9005 129.1 16.5244 129.267Z" fill="#4B4453"/>
<path fill-rule="evenodd" clip-rule="evenodd" d="M50.0652 131.025C49.7939 131.021 49.5229 131.017 49.2543 131.012C49.5261 131.016 49.7956 131.021 50.0652 131.025Z" fill="#4B4453"/>
<path fill-rule="evenodd" clip-rule="evenodd" d="M15.9348 76.8981C15.9281 76.5979 15.9214 76.2979 15.9148 75.9988C15.9214 76.2992 15.9281 76.5986 15.9348 76.8981Z" fill="#4B4453"/>
<path fill-rule="evenodd" clip-rule="evenodd" d="M41.291 38.9314C41.3133 38.6219 41.3356 38.3125 41.3582 38.0037C41.3356 38.3135 41.3133 38.6225 41.291 38.9314Z" fill="#4B4453"/>
<path fill-rule="evenodd" clip-rule="evenodd" d="M15.801 73.1805C15.7974 72.8701 15.7939 72.56 15.7903 72.2508C15.7939 72.5613 15.7974 72.8709 15.801 73.1805Z" fill="#4B4453"/>
<path fill-rule="evenodd" clip-rule="evenodd" d="M101.069 130.641C100.828 130.644 100.587 130.648 100.348 130.651C100.589 130.647 100.829 130.644 101.069 130.641Z" fill="#4B4453"/>
<path fill-rule="evenodd" clip-rule="evenodd" d="M38.9709 131.146C38.7354 131.151 38.4996 131.156 38.2662 131.161C38.5027 131.156 38.7367 131.151 38.9709 131.146Z" fill="#4B4453"/>
<path fill-rule="evenodd" clip-rule="evenodd" d="M13.5151 109.328C13.5321 109.056 13.5491 108.784 13.5657 108.512C13.5487 108.785 13.5319 109.056 13.5151 109.328Z" fill="#4B4453"/>
<path fill-rule="evenodd" clip-rule="evenodd" d="M17.7458 131.411C17.554 131.41 17.3622 131.409 17.1726 131.408C17.365 131.41 17.5555 131.411 17.7458 131.411Z" fill="#4B4453"/>
<path fill-rule="evenodd" clip-rule="evenodd" d="M43.8823 131.159C43.6924 131.154 43.5025 131.149 43.3144 131.145C43.5051 131.15 43.6939 131.155 43.8823 131.159Z" fill="#4B4453"/>
<path fill-rule="evenodd" clip-rule="evenodd" d="M86.5823 131.011C86.3731 131.009 86.164 131.008 85.9569 131.007C86.1665 131.008 86.3744 131.009 86.5823 131.011Z" fill="#4B4453"/>
<path fill-rule="evenodd" clip-rule="evenodd" d="M134.803 131.01C134.604 131.011 134.405 131.013 134.209 131.014C134.408 131.013 134.606 131.012 134.803 131.01Z" fill="#4B4453"/>
<path fill-rule="evenodd" clip-rule="evenodd" d="M146.533 131.043C146.331 131.031 146.128 131.019 145.928 131.008C146.131 131.02 146.332 131.031 146.533 131.043Z" fill="#4B4453"/>
<path fill-rule="evenodd" clip-rule="evenodd" d="M90.3725 52.0156C90.6741 51.9891 90.9757 51.9625 91.2773 51.9357C90.9754 51.9574 90.656 51.7746 90.3725 52.0156Z" fill="#4B4453"/>
<path fill-rule="evenodd" clip-rule="evenodd" d="M13.4864 129.385C13.7839 129.354 14.0813 129.323 14.3787 129.292C14.0811 129.323 13.7839 129.354 13.4864 129.385Z" fill="#4B4453"/>
<path fill-rule="evenodd" clip-rule="evenodd" d="M34.2311 53.8893C34.2509 54.1559 34.2712 54.4227 34.291 54.6885C34.271 54.4215 34.2509 54.1553 34.2311 53.8893Z" fill="#4B4453"/>
<path fill-rule="evenodd" clip-rule="evenodd" d="M15.7261 65.0049C15.7058 64.7521 15.6856 64.4994 15.6654 64.2477C15.6856 64.5008 15.706 64.7527 15.7261 65.0049Z" fill="#4B4453"/>
<path fill-rule="evenodd" clip-rule="evenodd" d="M34.3494 58.0248C34.3708 58.291 34.3924 58.557 34.4136 58.8223C34.3922 58.5559 34.3708 58.2902 34.3494 58.0248Z" fill="#4B4453"/>
<path fill-rule="evenodd" clip-rule="evenodd" d="M15.8521 75.2076C15.854 74.9504 15.8559 74.6932 15.8577 74.4367C15.6954 74.6932 15.7019 74.9498 15.8521 75.2076Z" fill="#4B4453"/>
<path fill-rule="evenodd" clip-rule="evenodd" d="M43.8148 112.147C43.8171 112.405 43.8192 112.663 43.8218 112.92C43.9883 112.66 43.9551 112.403 43.8148 112.147Z" fill="#4B4453"/>
<path fill-rule="evenodd" clip-rule="evenodd" d="M24.8588 82.3188C24.8878 82.0578 24.917 81.7967 24.946 81.5365C24.9168 81.7979 24.8878 82.0584 24.8588 82.3188Z" fill="#4B4453"/>
<path fill-rule="evenodd" clip-rule="evenodd" d="M181.822 58.3676C182.019 58.6342 182.288 58.4516 182.522 58.484C182.288 58.4451 182.055 58.4065 181.822 58.3676Z" fill="#4B4453"/>
<path fill-rule="evenodd" clip-rule="evenodd" d="M84.3161 118.67C84.5653 118.67 84.8144 118.671 85.0635 118.671C84.8142 118.671 84.5653 118.67 84.3161 118.67Z" fill="#4B4453"/>
<path fill-rule="evenodd" clip-rule="evenodd" d="M44.5161 59.4631C44.4928 59.6799 44.4697 59.8967 44.4464 60.1127C44.4697 59.8955 44.4928 59.6793 44.5161 59.4631Z" fill="#4B4453"/>
<path fill-rule="evenodd" clip-rule="evenodd" d="M167.63 37.9316C167.881 37.9367 168.131 37.9418 168.382 37.9469C168.134 37.7977 167.884 37.7545 167.63 37.9316Z" fill="#4B4453"/>
<path fill-rule="evenodd" clip-rule="evenodd" d="M34.3556 61.775C34.3718 62.0023 34.388 62.2295 34.4041 62.4559C34.3878 62.2285 34.3718 62.0018 34.3556 61.775Z" fill="#4B4453"/>
<path fill-rule="evenodd" clip-rule="evenodd" d="M41.2236 33.8684C41.2042 33.6611 41.1849 33.4539 41.1656 33.2478C41.1851 33.4555 41.2042 33.6619 41.2236 33.8684Z" fill="#4B4453"/>
<path fill-rule="evenodd" clip-rule="evenodd" d="M43.1917 33.2191C43.2113 33.444 43.231 33.669 43.2505 33.893C43.2308 33.6678 43.2113 33.4434 43.1917 33.2191Z" fill="#4B4453"/>
<path fill-rule="evenodd" clip-rule="evenodd" d="M151.979 18.2012C152.234 18.2328 152.489 18.2645 152.744 18.2959C152.489 18.2643 152.234 18.2328 151.979 18.2012Z" fill="#4B4453"/>
<path fill-rule="evenodd" clip-rule="evenodd" d="M170.386 38.1105C170.647 38.1379 170.909 38.1652 171.17 38.1926C170.909 38.1652 170.647 38.1379 170.386 38.1105Z" fill="#4B4453"/>
<path fill-rule="evenodd" clip-rule="evenodd" d="M27.0776 38.7695C27.0616 38.5604 27.0458 38.351 27.0299 38.143C27.0458 38.3523 27.0618 38.5609 27.0776 38.7695Z" fill="#4B4453"/>
<path fill-rule="evenodd" clip-rule="evenodd" d="M178.969 73.2922C178.819 73.2945 178.668 73.2967 178.52 73.299C178.671 73.2967 178.82 73.2945 178.969 73.2922Z" fill="#4B4453"/>
<path fill-rule="evenodd" clip-rule="evenodd" d="M43.1843 99.1098C43.1993 99.3414 43.2144 99.5729 43.2295 99.8039C43.2142 99.5723 43.1991 99.341 43.1843 99.1098Z" fill="#4B4453"/>
<path fill-rule="evenodd" clip-rule="evenodd" d="M27.8201 54.0313C27.8262 53.808 27.8321 53.585 27.8384 53.3623C27.8319 53.5857 27.826 53.8084 27.8201 54.0313Z" fill="#4B4453"/>
<path fill-rule="evenodd" clip-rule="evenodd" d="M145.564 17.673C145.796 17.673 146.029 17.6732 146.261 17.6732C146.028 17.5099 145.796 17.514 145.564 17.673Z" fill="#4B4453"/>
<path fill-rule="evenodd" clip-rule="evenodd" d="M83.5417 70.2166C83.7962 70.2232 84.0506 70.2299 84.3047 70.2365C84.0548 70.0557 83.8002 70.0512 83.5417 70.2166Z" fill="#4B4453"/>
<path fill-rule="evenodd" clip-rule="evenodd" d="M61.3047 130.631C61.1539 130.635 61.0029 130.638 60.854 130.642C61.0056 130.639 61.1552 130.635 61.3047 130.631Z" fill="#4B4453"/>
<path fill-rule="evenodd" clip-rule="evenodd" d="M55.6245 130.903C55.4739 130.897 55.3233 130.892 55.1748 130.887C55.326 130.892 55.4752 130.897 55.6245 130.903Z" fill="#4B4453"/>
<path fill-rule="evenodd" clip-rule="evenodd" d="M144.521 131.01C144.364 131.014 144.207 131.018 144.052 131.022C144.21 131.018 144.366 131.014 144.521 131.01Z" fill="#4B4453"/>
<path fill-rule="evenodd" clip-rule="evenodd" d="M13.6457 106.745C13.668 106.525 13.6904 106.304 13.7129 106.084C13.6904 106.305 13.668 106.525 13.6457 106.745Z" fill="#4B4453"/>
<path fill-rule="evenodd" clip-rule="evenodd" d="M34.1631 69.5387C34.1451 69.749 34.1274 69.9594 34.1098 70.1684C34.1276 69.9578 34.1453 69.7482 34.1631 69.5387Z" fill="#4B4453"/>
<path fill-rule="evenodd" clip-rule="evenodd" d="M26.2672 65.9271C26.2917 65.7041 26.3161 65.4811 26.3403 65.2588C26.3159 65.482 26.2917 65.7045 26.2672 65.9271Z" fill="#4B4453"/>
<path fill-rule="evenodd" clip-rule="evenodd" d="M143.247 131.143C143.088 131.14 142.93 131.138 142.773 131.136C142.932 131.138 143.09 131.141 143.247 131.143Z" fill="#4B4453"/>
<path fill-rule="evenodd" clip-rule="evenodd" d="M85.5471 131.161C85.3929 131.153 85.239 131.146 85.0867 131.139C85.2411 131.147 85.3942 131.154 85.5471 131.161Z" fill="#4B4453"/>
<path fill-rule="evenodd" clip-rule="evenodd" d="M27.5561 49.6402C27.5632 49.4143 27.57 49.1883 27.5769 48.9627C27.5698 49.1889 27.563 49.4145 27.5561 49.6402Z" fill="#4B4453"/>
<path fill-rule="evenodd" clip-rule="evenodd" d="M158.271 131.291C158.116 131.289 157.962 131.288 157.809 131.287C157.965 131.288 158.117 131.29 158.271 131.291Z" fill="#4B4453"/>
<path fill-rule="evenodd" clip-rule="evenodd" d="M27.6206 131.288C27.4618 131.29 27.3028 131.292 27.1459 131.293C27.3056 131.292 27.4631 131.29 27.6206 131.288Z" fill="#4B4453"/>
<path fill-rule="evenodd" clip-rule="evenodd" d="M24.1895 131.269C24.036 131.28 23.8827 131.292 23.7311 131.302C23.8852 131.291 24.0373 131.28 24.1895 131.269Z" fill="#4B4453"/>
<path fill-rule="evenodd" clip-rule="evenodd" d="M22.8035 131.266C22.6473 131.271 22.491 131.276 22.3367 131.279C22.4935 131.274 22.6485 131.27 22.8035 131.266Z" fill="#4B4453"/>
<path fill-rule="evenodd" clip-rule="evenodd" d="M15.6881 66.823C15.6984 66.6008 15.7084 66.3783 15.7185 66.1566C15.7083 66.3793 15.6984 66.6012 15.6881 66.823Z" fill="#4B4453"/>
<path fill-rule="evenodd" clip-rule="evenodd" d="M120.551 128.353C120.076 128.328 119.6 128.302 119.125 128.277C119.6 128.302 120.076 128.327 120.551 128.353Z" fill="#4B4453"/>
<path fill-rule="evenodd" clip-rule="evenodd" d="M149.22 47.533C148.808 47.5697 148.395 47.6065 147.983 47.6428C148.396 47.6063 148.808 47.5695 149.22 47.533Z" fill="#4B4453"/>
<path fill-rule="evenodd" clip-rule="evenodd" d="M32.7488 65.883C32.736 66.2857 32.7228 66.6885 32.71 67.09C32.723 66.6871 32.736 66.2852 32.7488 65.883Z" fill="#4B4453"/>
<path fill-rule="evenodd" clip-rule="evenodd" d="M24.2356 129.041C23.8049 129.068 23.3745 129.095 22.9438 129.121C23.3772 129.142 23.817 129.268 24.2356 129.041Z" fill="#4B4453"/>
<path fill-rule="evenodd" clip-rule="evenodd" d="M26.7839 81.4035C26.7807 81.0193 26.7775 80.6352 26.7745 80.252C26.7777 80.6363 26.7807 81.0199 26.7839 81.4035Z" fill="#4B4453"/>
<path fill-rule="evenodd" clip-rule="evenodd" d="M27.8862 93.4738C27.5085 93.4789 27.1303 93.4842 26.7527 93.4893C27.1307 93.484 27.5085 93.4789 27.8862 93.4738Z" fill="#4B4453"/>
<path fill-rule="evenodd" clip-rule="evenodd" d="M123.004 86.7199C123.014 87.0127 123.023 87.3055 123.032 87.5969C123.022 87.3037 123.013 87.0119 123.004 86.7199Z" fill="#4B4453"/>
<path fill-rule="evenodd" clip-rule="evenodd" d="M21.5975 74.3225C21.613 74.6139 21.6285 74.9051 21.6436 75.1949C21.6279 74.9033 21.6126 74.6129 21.5975 74.3225Z" fill="#4B4453"/>
<path fill-rule="evenodd" clip-rule="evenodd" d="M29.6587 127.745C29.3838 127.726 29.1089 127.707 28.8346 127.689C29.0413 127.858 29.2492 127.872 29.6587 127.745Z" fill="#4B4453"/>
<path fill-rule="evenodd" clip-rule="evenodd" d="M31.4983 89.6594C31.4794 89.9734 31.4605 90.2875 31.4418 90.6006C31.4607 90.2863 31.4794 89.9729 31.4983 89.6594Z" fill="#4B4453"/>
<path fill-rule="evenodd" clip-rule="evenodd" d="M134.277 40.0883C134.274 39.785 134.271 39.4817 134.268 39.1795C134.271 39.4832 134.274 39.7858 134.277 40.0883Z" fill="#4B4453"/>
<path fill-rule="evenodd" clip-rule="evenodd" d="M31.1655 93.5373L30.141 93.5145C30.4791 93.6817 30.8206 93.6875 31.1655 93.5373Z" fill="#4B4453"/>
<path fill-rule="evenodd" clip-rule="evenodd" d="M21.7137 95.7758C21.9553 95.7779 22.1968 95.7799 22.4368 95.7824C22.1945 95.7805 21.954 95.7781 21.7137 95.7758Z" fill="#4B4453"/>
<path fill-rule="evenodd" clip-rule="evenodd" d="M110.186 127.866C109.852 127.87 109.517 127.875 109.183 127.879C109.52 128.052 109.855 128.076 110.186 127.866Z" fill="#4B4453"/>
<path fill-rule="evenodd" clip-rule="evenodd" d="M173.186 128.874C172.847 128.843 172.507 128.812 172.168 128.781C172.507 128.812 172.847 128.843 173.186 128.874Z" fill="#4B4453"/>
<path fill-rule="evenodd" clip-rule="evenodd" d="M32.6311 68.4695C32.6145 68.7848 32.5979 69.1 32.5813 69.4143C32.5979 69.0986 32.6145 68.7842 32.6311 68.4695Z" fill="#4B4453"/>
<path fill-rule="evenodd" clip-rule="evenodd" d="M140.97 48.273C140.684 48.1287 140.395 48.1045 140.104 48.2574C140.393 48.2627 140.681 48.268 140.97 48.273Z" fill="#4B4453"/>
<path fill-rule="evenodd" clip-rule="evenodd" d="M41.991 72.1096C41.9673 72.3754 41.9436 72.6414 41.92 72.9065C41.9438 72.6402 41.9673 72.3748 41.991 72.1096Z" fill="#4B4453"/>
<path fill-rule="evenodd" clip-rule="evenodd" d="M17.8191 65.9051C17.966 65.6449 17.9609 65.3861 17.8118 65.1297C17.8143 65.3885 17.8166 65.6469 17.8191 65.9051Z" fill="#4B4453"/>
<path fill-rule="evenodd" clip-rule="evenodd" d="M32.5842 56.8736C32.5842 57.1367 32.584 57.4 32.584 57.6623C32.5842 57.3986 32.5842 57.1361 32.5842 56.8736Z" fill="#4B4453"/>
<path fill-rule="evenodd" clip-rule="evenodd" d="M22.3269 93.3482C22.0324 93.2559 21.7378 93.1252 21.4446 93.3514C21.7388 93.3504 22.0327 93.3492 22.3269 93.3482Z" fill="#4B4453"/>
<path fill-rule="evenodd" clip-rule="evenodd" d="M117.506 128.234C117.21 128.205 116.913 128.177 116.617 128.149C116.913 128.177 117.21 128.205 117.506 128.234Z" fill="#4B4453"/>
<path fill-rule="evenodd" clip-rule="evenodd" d="M158.136 128.234C157.865 128.112 157.594 128.048 157.326 128.244C157.597 128.24 157.866 128.238 158.136 128.234Z" fill="#4B4453"/>
<path fill-rule="evenodd" clip-rule="evenodd" d="M102.613 127.843C102.323 127.713 102.033 127.642 101.747 127.852C102.036 127.849 102.324 127.846 102.613 127.843Z" fill="#4B4453"/>
<path fill-rule="evenodd" clip-rule="evenodd" d="M167.228 89.4197C167.206 89.6879 167.184 89.9561 167.162 90.2234C167.184 89.9551 167.206 89.6875 167.228 89.4197Z" fill="#4B4453"/>
<path fill-rule="evenodd" clip-rule="evenodd" d="M99.8384 73.9736C99.5528 73.8674 99.2682 73.8119 98.9878 73.9894C99.2714 73.984 99.5549 73.9789 99.8384 73.9736Z" fill="#4B4453"/>
<path fill-rule="evenodd" clip-rule="evenodd" d="M32.6355 81.9561C32.6197 82.2182 32.6038 82.4803 32.5882 82.7418C32.604 82.4795 32.6198 82.2178 32.6355 81.9561Z" fill="#4B4453"/>
<path fill-rule="evenodd" clip-rule="evenodd" d="M167.412 58.3053C167.436 58.5164 167.459 58.7277 167.483 58.9377C167.459 58.7262 167.436 58.5158 167.412 58.3053Z" fill="#4B4453"/>
<path fill-rule="evenodd" clip-rule="evenodd" d="M183.965 119.534C183.979 119.74 183.994 119.945 184.008 120.15C183.993 119.944 183.979 119.739 183.965 119.534Z" fill="#4B4453"/>
<path fill-rule="evenodd" clip-rule="evenodd" d="M26.6572 83.3432C26.6732 83.1307 26.6893 82.9182 26.7053 82.7066C26.6893 82.9195 26.6732 83.1315 26.6572 83.3432Z" fill="#4B4453"/>
<path fill-rule="evenodd" clip-rule="evenodd" d="M47.4548 127.446C47.2004 127.448 46.9459 127.45 46.6917 127.451C46.9461 127.45 47.2006 127.448 47.4548 127.446Z" fill="#4B4453"/>
<path fill-rule="evenodd" clip-rule="evenodd" d="M123.1 88.5281C123.053 88.6828 123.005 88.8377 122.958 88.9926C123.275 89.0711 123.323 88.9162 123.1 88.5281Z" fill="#4B4453"/>
<path fill-rule="evenodd" clip-rule="evenodd" d="M104.021 73.624C103.762 73.6228 103.504 73.6219 103.245 73.6207C103.503 73.7461 103.761 73.8322 104.021 73.624Z" fill="#4B4453"/>
<path fill-rule="evenodd" clip-rule="evenodd" d="M167.083 90.6895C167.074 90.9238 167.065 91.1584 167.057 91.392C167.066 91.1574 167.074 90.9234 167.083 90.6895Z" fill="#4B4453"/>
<path fill-rule="evenodd" clip-rule="evenodd" d="M164.348 128.491C164.099 128.491 163.849 128.49 163.6 128.49C163.85 128.49 164.099 128.491 164.348 128.491Z" fill="#4B4453"/>
<path fill-rule="evenodd" clip-rule="evenodd" d="M41.3635 93.1606C41.3544 93.3764 41.345 93.5922 41.3357 93.8068C41.3446 93.5904 41.3542 93.3756 41.3635 93.1606Z" fill="#4B4453"/>
<path fill-rule="evenodd" clip-rule="evenodd" d="M169.645 128.754C169.399 128.587 169.154 128.602 168.907 128.751C169.153 128.752 169.399 128.753 169.645 128.754Z" fill="#4B4453"/>
<path fill-rule="evenodd" clip-rule="evenodd" d="M163.185 55.2902C163.172 55.5105 163.159 55.7311 163.145 55.95C163.158 55.7293 163.172 55.5098 163.185 55.2902Z" fill="#4B4453"/>
<path fill-rule="evenodd" clip-rule="evenodd" d="M170.921 128.777C170.666 128.778 170.411 128.779 170.156 128.78C170.412 128.958 170.667 128.966 170.921 128.777Z" fill="#4B4453"/>
<path fill-rule="evenodd" clip-rule="evenodd" d="M29.7021 51.8318C29.7001 51.608 29.6982 51.3844 29.6963 51.1611C29.6984 51.3852 29.7003 51.6084 29.7021 51.8318Z" fill="#4B4453"/>
<path fill-rule="evenodd" clip-rule="evenodd" d="M146.785 47.9178C146.541 47.9504 146.297 47.983 146.053 48.0154C146.297 47.9828 146.541 47.9504 146.785 47.9178Z" fill="#4B4453"/>
<path fill-rule="evenodd" clip-rule="evenodd" d="M168.313 67.234C168.31 67.443 168.306 67.6522 168.303 67.8602C168.306 67.6508 168.309 67.4424 168.313 67.234Z" fill="#4B4453"/>
<path fill-rule="evenodd" clip-rule="evenodd" d="M28.0595 67.2039C28.0729 66.991 28.0862 66.7781 28.0996 66.5662C28.0862 66.7795 28.0727 66.9918 28.0595 67.2039Z" fill="#4B4453"/>
<path fill-rule="evenodd" clip-rule="evenodd" d="M84.959 128.527C84.6579 128.555 84.3569 128.583 84.0561 128.611C84.3571 128.583 84.6579 128.555 84.959 128.527Z" fill="#4B4453"/>
<path fill-rule="evenodd" clip-rule="evenodd" d="M85.9648 120.554C86.1277 120.556 86.2901 120.559 86.4514 120.563C86.2882 120.56 86.1265 120.557 85.9648 120.554Z" fill="#4B4453"/>
<path fill-rule="evenodd" clip-rule="evenodd" d="M85.9509 128.405C85.6986 128.43 85.4458 128.456 85.1935 128.481C85.446 128.456 85.6986 128.43 85.9509 128.405Z" fill="#4B4453"/>
<path fill-rule="evenodd" clip-rule="evenodd" d="M131.387 111.009C131.058 112.908 133.943 114.765 134.172 112.066C134.255 111.078 133.61 110.384 132.888 109.781C131.862 108.924 131.289 109.744 131.387 111.009Z" fill="#4B4453"/>
<path fill-rule="evenodd" clip-rule="evenodd" d="M163.184 87.8375C162.505 88.1221 157.313 89.8531 160.01 90.7238C160.724 90.9543 161.803 90.9887 162.422 90.5826C163.166 90.0939 163.917 88.6519 163.184 87.8375Z" fill="#4B4453"/>
<path fill-rule="evenodd" clip-rule="evenodd" d="M161.907 62.118C160.144 61.9086 158.521 64.8701 160.693 64.774C162.275 64.7039 164.402 62.118 161.907 62.118Z" fill="#4B4453"/>
<path fill-rule="evenodd" clip-rule="evenodd" d="M155.602 69.3795C154.131 70.6932 156.858 73.6332 157.941 72.4953C158.494 71.9141 157.984 70.6619 157.528 70.1756C157.059 69.6766 156.226 69.5828 155.602 69.3795Z" fill="#4B4453"/>
<path fill-rule="evenodd" clip-rule="evenodd" d="M151.221 103.436C152.09 103.577 155.911 104.854 155.114 102.534C154.81 101.649 153.962 101.912 153.188 101.953C151.939 102.018 151.221 101.957 151.221 103.436Z" fill="#4B4453"/>
<path fill-rule="evenodd" clip-rule="evenodd" d="M153.738 109.412C152.437 110.124 154.338 114.108 155.416 113.26C156.912 112.084 154.866 109.77 153.738 109.412Z" fill="#4B4453"/>
<path fill-rule="evenodd" clip-rule="evenodd" d="M148.066 106.209C147.433 105.945 144.452 108.879 145.587 109.695C146.169 110.113 147.271 109.396 147.621 108.964C148.279 108.153 148.338 107.153 148.066 106.209Z" fill="#4B4453"/>
<path fill-rule="evenodd" clip-rule="evenodd" d="M165.266 82.2277C164.619 82.3363 163.503 82.3707 163.462 83.3C163.425 84.1168 164.426 84.3814 165.13 84.4455C165.861 84.5119 166.829 84.3008 166.843 83.3603C166.858 82.3457 165.289 82.4068 165.266 82.2277Z" fill="#4B4453"/>
<path fill-rule="evenodd" clip-rule="evenodd" d="M149.327 122.668C148.638 123.095 145.428 124.635 146.804 125.747C147.319 126.163 148.88 125.303 149.232 124.866C149.651 124.345 150.061 123.123 149.327 122.668Z" fill="#4B4453"/>
<path fill-rule="evenodd" clip-rule="evenodd" d="M140.401 111.497C140.5 109.798 137.698 109.121 138.279 111.533C138.443 112.213 138.602 113.246 139.423 113.285C140.395 113.332 140.43 112.156 140.401 111.497Z" fill="#4B4453"/>
<path fill-rule="evenodd" clip-rule="evenodd" d="M149.056 81.948C149.037 83.2371 151.451 84.3738 151.47 82.3307C151.486 80.5049 148.966 79.9705 149.056 81.948Z" fill="#4B4453"/>
<path fill-rule="evenodd" clip-rule="evenodd" d="M150.65 75.2344C150.056 75.4305 149.265 75.5314 149.213 76.3047C149.157 77.123 149.9 77.4873 150.569 77.4414C151.117 77.4037 151.928 76.9885 152.028 76.3799C152.174 75.4865 151.322 75.4281 150.65 75.2344Z" fill="#4B4453"/>
<path fill-rule="evenodd" clip-rule="evenodd" d="M161.711 98.8346C161.721 97.7709 159.638 96.4926 159.254 97.7268C159.131 98.1217 160.113 99.8926 160.44 100.025C161.304 100.376 161.425 99.5582 161.711 98.8346Z" fill="#4B4453"/>
<path fill-rule="evenodd" clip-rule="evenodd" d="M144.639 116.538C145.343 117.183 147.455 118.994 147.297 116.563C147.196 115.01 144.453 115.091 144.639 116.538Z" fill="#4B4453"/>
<path fill-rule="evenodd" clip-rule="evenodd" d="M110.232 123.487C110.001 122.465 106.697 124.238 107.8 125.529C108.17 125.963 109.137 125.571 109.509 125.314C110.246 124.805 110.262 124.336 110.232 123.487Z" fill="#4B4453"/>
<path fill-rule="evenodd" clip-rule="evenodd" d="M128.641 101.605C128.512 101.149 128.369 100.343 127.944 100.052C127.175 99.526 126.505 100.32 126.505 101.156C126.505 102.717 128.241 103.209 128.641 101.605Z" fill="#4B4453"/>
<path fill-rule="evenodd" clip-rule="evenodd" d="M136.829 119.85C135.971 120.052 134.061 122.185 135.169 123.055C136.235 123.893 137.653 120.488 136.829 119.85Z" fill="#4B4453"/>
<path fill-rule="evenodd" clip-rule="evenodd" d="M136.013 103.7C134.91 103.79 133.394 105.618 135.108 105.908C136.449 106.136 138.009 104.148 136.013 103.7Z" fill="#4B4453"/>
<path fill-rule="evenodd" clip-rule="evenodd" d="M126.027 112.11C125.751 111.157 123.015 112.178 123.169 113.228C123.25 113.786 124.369 113.917 124.957 113.769C125.822 113.552 126.047 112.971 126.027 112.11Z" fill="#4B4453"/>
<path fill-rule="evenodd" clip-rule="evenodd" d="M158.272 58.8666C158.252 57.6342 155.937 57.1318 155.768 58.3738C155.615 59.4959 158.301 60.6898 158.272 58.8666Z" fill="#4B4453"/>
<path fill-rule="evenodd" clip-rule="evenodd" d="M126.792 124.809C126.625 124.189 126.553 123.443 125.796 123.362C124.93 123.268 124.956 123.948 125.058 124.652C125.335 126.568 126.393 126.664 126.792 124.809Z" fill="#4B4453"/>
<path fill-rule="evenodd" clip-rule="evenodd" d="M163.343 73.5297C164.55 73.8082 166.759 71.4305 165.409 70.9203C164.457 70.5603 163.343 72.8123 163.343 73.5297Z" fill="#4B4453"/>
<path fill-rule="evenodd" clip-rule="evenodd" d="M147.953 91.9992C148.567 92.2951 148.708 92.4746 149.18 91.9891C149.591 91.5662 149.573 90.3881 149.22 89.9483C147.87 88.2639 147.901 91.3176 147.953 91.9992Z" fill="#4B4453"/>
<path fill-rule="evenodd" clip-rule="evenodd" d="M142.943 88.583C142.302 88.6664 140.399 90.5133 141.39 91.2473C142.604 92.1465 143.291 89.3295 142.943 88.583Z" fill="#4B4453"/>
<path fill-rule="evenodd" clip-rule="evenodd" d="M129.086 89.0693C129.552 90.9035 130.714 89.6693 130.648 88.2815C130.542 86.0584 129.338 87.9945 129.086 89.0693Z" fill="#4B4453"/>
<path fill-rule="evenodd" clip-rule="evenodd" d="M122.021 118.528C121.233 118.861 120.164 121.941 121.289 122.107C122.553 122.292 122.132 119.169 122.021 118.528Z" fill="#4B4453"/>
<path fill-rule="evenodd" clip-rule="evenodd" d="M131.857 116.797C130.955 116.486 130.625 118.431 131.149 118.792C132.301 119.587 132.058 117.256 131.857 116.797Z" fill="#4B4453"/>
<path fill-rule="evenodd" clip-rule="evenodd" d="M140.401 111.497C140.412 111.755 140.424 112.013 140.436 112.27C140.424 112.011 140.413 111.754 140.401 111.497Z" fill="#4B4453"/>
<path fill-rule="evenodd" clip-rule="evenodd" d="M110.232 123.487C110.242 123.752 110.251 124.016 110.26 124.28C110.252 124.015 110.242 123.751 110.232 123.487Z" fill="#4B4453"/>
<path fill-rule="evenodd" clip-rule="evenodd" d="M126.027 112.11C126.032 112.335 126.037 112.559 126.043 112.782C126.038 112.557 126.032 112.334 126.027 112.11Z" fill="#4B4453"/>
<path fill-rule="evenodd" clip-rule="evenodd" d="M26.3443 108.245C24.4758 108.183 22.3915 107.464 20.5555 107.693C20.05 107.756 18.8866 107.886 19.6963 108.653C20.0836 109.02 21.9378 108.83 22.499 108.952C25.9295 109.695 29.8237 110.174 33.3412 110.112C34.9878 110.083 36.6467 109.948 38.2925 109.859C39.9373 109.77 40.0989 109.087 38.2483 108.869C36.3262 108.643 34.3539 108.727 32.4223 108.725C30.3916 108.722 28.371 108.383 26.3443 108.245Z" fill="#4B4453"/>
<path fill-rule="evenodd" clip-rule="evenodd" d="M22.2424 103.639C22.4222 104.163 22.5801 105.365 23.2692 105.444C24.2343 105.554 24.3941 103.859 24.3586 103.238C24.3154 102.49 24.0522 101.247 23.143 101.506C22.375 101.725 22.2981 103.04 22.2424 103.639Z" fill="#4B4453"/>
<path fill-rule="evenodd" clip-rule="evenodd" d="M28.0854 103.255C27.9444 102.694 27.8751 101.429 27.0997 101.386C26.233 101.338 25.9855 102.656 25.9912 103.288C25.9969 103.887 26.2136 105.019 26.9036 105.158C27.8392 105.346 27.9228 103.896 28.0854 103.255Z" fill="#4B4453"/>
<path fill-rule="evenodd" clip-rule="evenodd" d="M37.8163 104.261C38.0971 104.936 38.2828 105.864 39.1517 105.404C39.8237 105.049 39.9174 103.615 39.7907 102.959C39.6593 102.279 39.3812 101.499 38.6174 101.804C37.7367 102.157 37.8256 103.519 37.8163 104.261Z" fill="#4B4453"/>
<path fill-rule="evenodd" clip-rule="evenodd" d="M30.4474 103.639C31.2757 106.208 32.7864 104.47 32.2128 102.552C31.613 100.547 30.5236 102.494 30.4474 103.639Z" fill="#4B4453"/>
<path fill-rule="evenodd" clip-rule="evenodd" d="M34.4831 103.766C34.7131 104.218 34.9578 105.194 35.5778 105.091C36.338 104.965 36.3624 103.468 36.279 102.911C36.2062 102.423 35.9921 101.61 35.3558 101.62C34.4365 101.636 34.4981 103.18 34.4831 103.766Z" fill="#4B4453"/>
<path fill-rule="evenodd" clip-rule="evenodd" d="M17.961 104.259C18.5775 105.674 19.4257 104.455 19.1542 103.45C18.7516 101.959 17.9959 103.28 17.961 104.259Z" fill="#4B4453"/>
<path fill-rule="evenodd" clip-rule="evenodd" d="M33.0611 108.726C33.7344 108.724 34.408 108.721 35.0813 108.719C34.4075 108.589 33.7336 108.538 33.0611 108.726Z" fill="#4B4453"/>
<path fill-rule="evenodd" clip-rule="evenodd" d="M19.6796 107.687C20.2637 107.691 20.8477 107.694 21.4314 107.698C20.8484 107.519 20.2645 107.515 19.6796 107.687Z" fill="#4B4453"/>
<path fill-rule="evenodd" clip-rule="evenodd" d="M26.3442 108.245C26.8117 108.277 27.279 108.309 27.7463 108.341C27.2788 108.309 26.8115 108.277 26.3442 108.245Z" fill="#4B4453"/>
<path fill-rule="evenodd" clip-rule="evenodd" d="M37.8163 104.261C37.8205 103.918 37.8251 103.575 37.8291 103.232C37.6563 103.573 37.6684 103.916 37.8163 104.261Z" fill="#4B4453"/>
<path fill-rule="evenodd" clip-rule="evenodd" d="M34.1521 110.105C33.881 110.108 33.61 110.11 33.3412 110.112C33.613 110.11 33.8826 110.108 34.1521 110.105Z" fill="#4B4453"/>
<path fill-rule="evenodd" clip-rule="evenodd" d="M38.7041 109.859C38.4296 109.859 38.1549 109.859 37.8823 109.859C38.158 109.859 38.4309 109.859 38.7041 109.859Z" fill="#4B4453"/>
<path fill-rule="evenodd" clip-rule="evenodd" d="M36.4532 108.756C36.835 108.788 37.2168 108.82 37.5984 108.852C37.2166 108.82 36.835 108.788 36.4532 108.756Z" fill="#4B4453"/>
<path fill-rule="evenodd" clip-rule="evenodd" d="M31.2915 108.722C31.6685 108.723 32.0454 108.724 32.4224 108.724C32.0455 108.562 31.6687 108.557 31.2915 108.722Z" fill="#4B4453"/>
<path fill-rule="evenodd" clip-rule="evenodd" d="M34.483 103.766C34.4923 103.408 34.5015 103.05 34.5103 102.693C34.5009 103.051 34.4919 103.408 34.483 103.766Z" fill="#4B4453"/>
<path fill-rule="evenodd" clip-rule="evenodd" d="M39.7906 102.959C39.7927 103.308 39.7947 103.657 39.7974 104.004C39.7953 103.655 39.793 103.307 39.7906 102.959Z" fill="#4B4453"/>
<path fill-rule="evenodd" clip-rule="evenodd" d="M24.2023 108.115C24.5356 108.146 24.8687 108.176 25.2017 108.207C24.8684 108.176 24.5353 108.146 24.2023 108.115Z" fill="#4B4453"/>
<path fill-rule="evenodd" clip-rule="evenodd" d="M17.9611 104.259C17.9719 103.954 17.9825 103.649 17.9932 103.345C17.9823 103.65 17.9719 103.954 17.9611 104.259Z" fill="#4B4453"/>
<path fill-rule="evenodd" clip-rule="evenodd" d="M32.1382 110.115C31.9063 110.111 31.6743 110.106 31.4447 110.102C31.6774 110.107 31.9078 110.111 32.1382 110.115Z" fill="#4B4453"/>
<path fill-rule="evenodd" clip-rule="evenodd" d="M22.2424 103.639C22.2628 103.42 22.2832 103.2 22.3035 102.982C22.283 103.201 22.2626 103.42 22.2424 103.639Z" fill="#4B4453"/>
<path fill-rule="evenodd" clip-rule="evenodd" d="M30.4473 103.639C30.4622 103.414 30.4773 103.188 30.4922 102.964C30.4771 103.189 30.4622 103.414 30.4473 103.639Z" fill="#4B4453"/>
<path fill-rule="evenodd" clip-rule="evenodd" d="M150.067 37.5195C150.979 37.2746 151.15 35.9629 151.003 35.1572C150.837 34.7689 150.671 34.3809 150.505 33.9926C150.57 33.849 150.635 33.7055 150.699 33.5619C150.616 32.7623 150.829 32.4148 149.931 32.7387C148.263 33.3406 147.996 37.4578 150.067 37.5195Z" fill="#4B4453"/>
<path fill-rule="evenodd" clip-rule="evenodd" d="M136.563 34.9834C135.811 34.9229 134.446 35.8184 135.194 36.6848C135.658 37.2215 137.185 36.9676 137.808 37.0797C138.634 37.2283 139.496 37.4316 139.049 36.1652C138.698 35.1707 137.444 34.9574 136.563 34.9834Z" fill="#4B4453"/>
<path fill-rule="evenodd" clip-rule="evenodd" d="M137.353 40.94C138.117 40.3137 137.776 37.4607 136.614 37.974C135.419 38.5024 136.716 40.5283 137.353 40.94Z" fill="#4B4453"/>
<path fill-rule="evenodd" clip-rule="evenodd" d="M151.003 35.1572C151.003 35.4574 151.003 35.7578 151.004 36.0566C151.163 35.7559 151.158 35.4564 151.003 35.1572Z" fill="#4B4453"/>
<path fill-rule="evenodd" clip-rule="evenodd" d="M150.066 37.5195C149.911 37.515 149.755 37.5104 149.601 37.5063C149.758 37.5113 149.912 37.5154 150.066 37.5195Z" fill="#4B4453"/>
<path fill-rule="evenodd" clip-rule="evenodd" d="M55.8079 119.681C55.8793 120.979 57.2413 120.019 57.1448 119.151C56.9693 117.576 56.0987 119.133 55.8079 119.681Z" fill="#4B4453"/>
</svg>
